<svg width="219" height="254" viewBox="0 0 219 254" fill="none" xmlns="http://www.w3.org/2000/svg">
<path d="M58.6141 77.398C57.0515 77.9925 55.4558 78.4964 53.835 78.9073C51.6941 79.4284 50.4854 79.6699 48.4191 78.869C48.3465 78.8409 48.2772 78.8131 48.2119 78.7857C44.2952 77.1227 40.9471 74.3584 38.5752 70.8294C36.2032 67.3004 34.9097 63.1589 34.8521 58.9091C34.8418 58.7633 34.8418 58.61 34.8418 58.4605C34.8398 57.7402 34.8742 57.0203 34.9451 56.3035C35.0356 55.3271 35.192 54.3579 35.4132 53.4025L35.3926 53.3988C33.7196 51.6904 33.0759 49.3502 33.2893 46.9988C33.4355 45.4046 33.9421 43.8644 34.7709 42.4942C35.5998 41.124 36.7292 39.9595 38.0741 39.0885C40.1819 37.7651 42.5585 36.9273 45.0311 36.6361C45.6951 36.5597 46.3628 36.521 47.0311 36.5203H53.31C54.6068 36.217 55.9242 36.0096 57.2515 35.8997H57.2618C69.8987 34.853 79.8642 43.2193 78.9348 53.3988C78.9279 53.41 78.9176 53.4212 78.9107 53.4324C78.6422 53.8698 78.4047 54.2847 78.1947 54.681C77.9916 55.0511 77.8195 55.4062 77.6715 55.7427C76.5183 58.3446 81.9985 98.7126 80.0329 99.3256C78.9142 99.6733 74.4047 69.6343 75.2136 75.3465C76.2326 82.5128 64.4358 75.2488 58.6141 77.398Z" fill="#18181B"/>
<path d="M77.6508 150.372L95.168 187.64L27.7834 180.825L41.8496 145.047L77.6508 150.372Z" fill="#FFB6B6"/>
<path d="M112.815 225.093C101.097 228.989 88.7488 230.64 76.4176 229.962L71.0554 221.278C71.0554 221.278 70.8309 224.512 70.496 229.457C64.626 228.777 58.8326 227.551 53.1915 225.793C42.4937 222.452 32.4658 217.276 22.3008 212.502C20.2419 200.245 19.4694 181.345 30.8522 170.342L92.1199 181.554C92.1199 181.554 101.95 188.897 99.3202 191.527C96.6905 194.153 96.2833 193.746 98.0111 195.472C99.7388 197.197 103.472 199.504 103.51 201.013C103.525 201.602 107.716 212.286 112.815 225.093Z" fill="#18181B"/>
<path d="M66.952 78.3555L52.1499 79.3868L42.5828 88.6192L39.2322 89.2165C36.2204 89.7528 33.5104 91.3741 31.616 93.7731C29.7216 96.1721 28.7746 99.1819 28.9545 102.232C29.6437 113.893 31.1868 131.317 34.4121 136.97C39.4133 145.735 43.5441 142.985 39.4133 145.735C35.2824 148.485 32.5091 146.324 34.4121 150.671C36.3151 155.017 31.8401 160.592 31.8401 160.592L30.0587 162.371L31.9481 163.144L92.1526 170.968C92.1526 170.968 86.9469 147.593 90.2025 141.851C93.4581 136.109 101.352 118.753 94.3068 111.961L87.4185 87.7538L75.57 84.2639L66.952 78.3555Z" fill="#673EE5"/>
<path d="M156.556 174.29C155.565 174.259 154.593 174.013 153.707 173.57C152.821 173.126 152.042 172.496 151.424 171.722C150.806 170.948 150.363 170.05 150.127 169.089C149.891 168.127 149.867 167.126 150.056 166.155L121.815 147.055L125.185 137.955L158.561 160.885C160.174 161.325 161.571 162.341 162.485 163.74C163.399 165.139 163.767 166.825 163.52 168.477C163.273 170.129 162.428 171.634 161.144 172.705C159.861 173.776 158.228 174.34 156.556 174.29Z" fill="#FFB6B6"/>
<path d="M76.7899 86.6102L72.6863 88.233L94.5772 130.93L139.895 161.779L146.427 150.753L111.931 120.996L98.1202 94.5449C96.1766 90.8224 92.9207 87.9512 88.9813 86.4857C85.0419 85.0203 80.6985 85.0647 76.7899 86.6102Z" fill="#673EE5"/>
<path d="M58.7806 74.6C66.9895 74.6 73.644 67.9544 73.644 59.7566C73.644 51.5587 66.9895 44.9131 58.7806 44.9131C50.5718 44.9131 43.9172 51.5587 43.9172 59.7566C43.9172 67.9544 50.5718 74.6 58.7806 74.6Z" fill="#FFB6B6"/>
<path d="M71.706 53.4799C71.4581 53.6106 71.2137 53.7309 70.9659 53.8512C70.7077 53.975 70.4495 54.0987 70.1879 54.2156C65.2137 56.4673 61.1621 56.7183 58.7042 53.4799C58.637 51.7762 58.2529 50.0999 57.5717 48.5365C57.6921 50.2836 57.231 52.0215 56.2602 53.4799H51.3101C46.2119 56.8592 43.5958 59.9635 47.1345 71.0571C47.3651 71.7859 48.9452 97.6789 49.3961 99.6693C41.6784 96.7129 35.0209 65.3229 34.8522 57.0517C34.8419 56.9177 34.8419 56.7767 34.8419 56.6392C34.8399 55.9766 34.8743 55.3144 34.9452 54.6556C35.036 53.7562 35.1924 52.8646 35.4133 51.988L35.3926 51.9845C34.6074 51.2348 34.0084 50.3123 33.6432 49.2905C33.2781 48.2687 33.1569 47.1759 33.2894 46.0991C34.5841 44.4062 36.1863 42.9718 38.0123 41.8707C39.6727 41.0677 41.4034 40.4187 43.1827 39.9318C43.2274 39.9215 43.2653 39.9112 43.31 39.9009C43.8539 39.7531 44.4116 39.619 44.9693 39.5021C46.1185 39.2614 47.2804 39.0858 48.4495 38.9761C48.5355 38.9727 48.6181 38.9658 48.6939 38.9658C49.1615 38.9661 49.6204 39.092 50.0226 39.3302C50.0261 39.3302 50.0261 39.3337 50.0329 39.3337C50.4194 39.5643 50.7399 39.8903 50.9636 40.2805C51.1872 40.6706 51.3066 41.1117 51.3101 41.5613H56.8247C57.0278 41.5613 57.2309 41.5682 57.434 41.5785C65.1139 41.8844 71.286 45.1641 71.6819 52.703C71.6991 52.9643 71.706 53.2187 71.706 53.4799Z" fill="#18181B"/>
<path d="M39.1024 54.0765C44.5104 54.0765 48.8945 49.6983 48.8945 44.2975C48.8945 38.8967 44.5104 34.5186 39.1024 34.5186C33.6944 34.5186 29.3103 38.8967 29.3103 44.2975C29.3103 49.6983 33.6944 54.0765 39.1024 54.0765Z" fill="#18181B"/>
<path d="M52.5458 39.7747C51.4333 45.06 45.9448 48.2211 40.694 46.928C38.1725 46.307 36.0013 44.7112 34.658 42.4915C33.3147 40.2719 32.9094 37.6102 33.5312 35.0921C34.826 29.8484 41.1984 31.3601 45.3829 27.9389C51.3025 23.099 54.046 32.6471 52.5458 39.7747Z" fill="#18181B"/>
<path d="M30.7892 186.896C39.1348 152.909 55.6708 123.696 83.0567 100.808C84.1166 99.0664 85.8248 97.8161 87.8066 97.3311C89.7884 96.846 91.8819 97.1658 93.6279 98.2203L158.731 137.641C160.475 138.699 161.727 140.405 162.212 142.384C162.698 144.364 162.378 146.454 161.322 148.198C150.869 183.073 135.213 213.335 109.054 234.286C107.994 236.028 106.286 237.278 104.305 237.763C102.323 238.248 100.229 237.928 98.4833 236.874L33.38 197.453C31.6364 196.395 30.3845 194.689 29.8987 192.71C29.413 190.731 29.7333 188.64 30.7892 186.896Z" fill="#F2F2F2"/>
<path opacity="0.2" d="M42.3606 198.351C40.617 197.292 39.3651 195.586 38.8794 193.607C38.3937 191.628 38.7139 189.537 39.7698 187.794C48.1154 153.806 64.6515 124.593 92.0373 101.705C92.7389 100.565 93.7295 99.6307 94.9089 98.9961L93.6278 98.2203C91.8818 97.1658 89.7883 96.846 87.8066 97.331C85.8248 97.8161 84.1166 99.0663 83.0567 100.807C55.6708 123.696 39.1348 152.908 30.7892 186.896C29.7333 188.64 29.413 190.73 29.8987 192.71C30.3844 194.689 31.6364 196.395 33.38 197.453L98.4831 236.874C99.6418 237.57 100.964 237.948 102.316 237.969C103.669 237.991 105.002 237.655 106.183 236.995L42.3606 198.351Z" fill="#18181B"/>
<path d="M118.71 179.361L75.0098 153.066C74.3155 152.647 73.8161 151.97 73.6213 151.183C73.4265 150.397 73.5523 149.565 73.9709 148.871C74.3896 148.178 75.0669 147.678 75.8541 147.482C76.6413 147.287 77.4741 147.411 78.1694 147.829L121.87 174.124C122.562 174.544 123.06 175.221 123.254 176.007C123.448 176.792 123.322 177.623 122.903 178.316C122.485 179.009 121.809 179.508 121.023 179.704C120.237 179.9 119.405 179.777 118.71 179.361Z" fill="white"/>
<path d="M93.288 144.491L83.674 138.706C82.9772 138.289 82.4746 137.614 82.2767 136.827C82.0788 136.041 82.2017 135.208 82.6185 134.513C83.0354 133.817 83.7119 133.315 84.4993 133.117C85.2866 132.919 86.1204 133.042 86.8172 133.459L86.8337 133.469L96.4477 139.254C97.1405 139.673 97.6384 140.35 97.8323 141.136C98.0262 141.922 97.9002 142.752 97.482 143.445C97.0638 144.138 96.3875 144.638 95.6014 144.833C94.8152 145.029 93.9833 144.906 93.288 144.491Z" fill="white"/>
<path d="M111.765 190.873L68.0642 164.577C67.3692 164.159 66.8687 163.483 66.6728 162.697C66.477 161.91 66.6017 161.078 67.0196 160.384C67.4375 159.689 68.1144 159.189 68.9016 158.993C69.6888 158.796 70.5218 158.92 71.2177 159.337L71.2239 159.34L114.924 185.636C115.617 186.056 116.114 186.733 116.308 187.518C116.502 188.304 116.376 189.134 115.958 189.827C115.54 190.52 114.864 191.019 114.078 191.216C113.292 191.412 112.46 191.288 111.765 190.873Z" fill="white"/>
<path d="M124.26 129.78C131.309 129.78 137.024 124.073 137.024 117.033C137.024 109.993 131.309 104.286 124.26 104.286C117.21 104.286 111.496 109.993 111.496 117.033C111.496 124.073 117.21 129.78 124.26 129.78Z" fill="#18181B"/>
<path d="M102.258 253.62C117.325 253.62 129.539 241.422 129.539 226.375C129.539 211.329 117.325 199.131 102.258 199.131C87.1912 199.131 74.9771 211.329 74.9771 226.375C74.9771 241.422 87.1912 253.62 102.258 253.62Z" fill="white"/>
<path d="M102.258 254C96.7871 254 91.439 252.38 86.8901 249.345C82.3412 246.309 78.7957 241.995 76.7021 236.947C74.6084 231.899 74.0606 226.345 75.1279 220.986C76.1953 215.628 78.8298 210.705 82.6983 206.842C86.5668 202.979 91.4956 200.348 96.8614 199.282C102.227 198.216 107.789 198.763 112.844 200.854C117.898 202.945 122.218 206.485 125.258 211.028C128.297 215.571 129.92 220.912 129.92 226.375C129.911 233.699 126.994 240.721 121.809 245.9C116.623 251.079 109.592 253.992 102.258 254ZM102.258 199.511C96.9377 199.511 91.7367 201.087 87.313 204.039C82.8892 206.991 79.4413 211.186 77.4052 216.095C75.3692 221.004 74.8365 226.405 75.8745 231.617C76.9125 236.828 79.4745 241.615 83.2366 245.372C86.9987 249.129 91.792 251.687 97.0102 252.724C102.228 253.76 107.637 253.228 112.553 251.195C117.468 249.162 121.669 245.718 124.625 241.3C127.581 236.883 129.159 231.689 129.159 226.375C129.151 219.253 126.314 212.425 121.271 207.388C116.228 202.352 109.39 199.519 102.258 199.511Z" fill="#18181B"/>
<path d="M98.5362 240.555C98.0651 240.555 97.6005 240.445 97.1791 240.235C96.7578 240.024 96.3913 239.719 96.1088 239.342L88.666 229.432C88.4265 229.114 88.2522 228.751 88.153 228.365C88.0538 227.98 88.0317 227.578 88.0879 227.184C88.1442 226.79 88.2776 226.411 88.4807 226.068C88.6838 225.725 88.9525 225.426 89.2715 225.187C89.5905 224.948 89.9535 224.774 90.3398 224.676C90.7261 224.577 91.1281 224.555 91.5227 224.612C91.9174 224.668 92.2971 224.802 92.6401 225.005C92.983 225.208 93.2825 225.477 93.5215 225.795L98.3907 232.279L110.897 213.545C111.118 213.214 111.402 212.929 111.733 212.708C112.064 212.486 112.436 212.332 112.827 212.254C113.217 212.176 113.62 212.176 114.011 212.253C114.402 212.33 114.774 212.484 115.105 212.704C115.437 212.925 115.722 213.209 115.943 213.54C116.165 213.87 116.319 214.241 116.398 214.632C116.476 215.022 116.476 215.424 116.399 215.814C116.322 216.204 116.168 216.576 115.947 216.907L101.061 239.205C100.792 239.608 100.43 239.941 100.005 240.176C99.5807 240.411 99.1058 240.54 98.6207 240.554C98.5925 240.554 98.5644 240.555 98.5362 240.555Z" fill="#2ECE8E"/>
<path d="M190.363 88.3127C191.447 88.2201 192.273 87.5345 192.209 86.7814C192.144 86.0282 191.213 85.4927 190.129 85.5853C189.045 85.6779 188.219 86.3635 188.283 87.1166C188.347 87.8697 189.279 88.4052 190.363 88.3127Z" fill="white"/>
<path d="M202.56 84.1803C203.644 84.0878 204.471 83.4022 204.406 82.649C204.342 81.8959 203.41 81.3604 202.326 81.453C201.242 81.5456 200.416 82.2311 200.48 82.9843C200.545 83.7374 201.476 84.2729 202.56 84.1803Z" fill="#18181B"/>
<path d="M184.581 79.0192C185.665 78.9266 186.492 78.241 186.427 77.4879C186.363 76.7348 185.431 76.1993 184.347 76.2919C183.263 76.3844 182.437 77.07 182.501 77.8231C182.566 78.5763 183.497 79.1118 184.581 79.0192Z" fill="#FF6584"/>
<path d="M179.464 76.0246C179.931 75.9193 180.186 75.2909 180.035 74.6211C179.883 73.9513 179.382 73.4936 178.916 73.5989C178.449 73.7042 178.194 74.3326 178.345 75.0024C178.497 75.6722 178.998 76.1299 179.464 76.0246Z" fill="#E6E6E6"/>
<path d="M175.822 68.755C176.288 68.6498 176.544 68.0214 176.392 67.3516C176.241 66.6817 175.739 66.2241 175.273 66.3294C174.806 66.4347 174.551 67.063 174.702 67.7328C174.854 68.4027 175.355 68.8603 175.822 68.755Z" fill="#18181B"/>
<path d="M193.299 78.9645C193.765 78.8592 194.021 78.2309 193.869 77.561C193.718 76.8912 193.216 76.4336 192.75 76.5389C192.283 76.6441 192.028 77.2725 192.179 77.9423C192.331 78.6121 192.832 79.0698 193.299 78.9645Z" fill="#E6E6E6"/>
<path d="M187.971 83.381C188.438 83.2757 188.693 82.6474 188.542 81.9776C188.39 81.3077 187.889 80.8501 187.422 80.9554C186.956 81.0606 186.7 81.689 186.852 82.3588C187.004 83.0286 187.505 83.4863 187.971 83.381Z" fill="#FF6584"/>
<path d="M197.67 86.9787C198.137 86.8734 198.392 86.245 198.241 85.5752C198.089 84.9054 197.588 84.4477 197.121 84.553C196.655 84.6583 196.399 85.2867 196.551 85.9565C196.703 86.6263 197.204 87.084 197.67 86.9787Z" fill="#18181B"/>
<path d="M140.004 31.9983C140.19 31.2656 139.485 30.4552 138.431 30.1883C137.376 29.9214 136.37 30.299 136.184 31.0317C135.998 31.7644 136.703 32.5748 137.757 32.8417C138.812 33.1086 139.818 32.731 140.004 31.9983Z" fill="white"/>
<path d="M127.124 31.9153C127.31 31.1826 126.605 30.3722 125.551 30.1053C124.496 29.8383 123.49 30.2159 123.304 30.9487C123.119 31.6814 123.823 32.4918 124.877 32.7587C125.932 33.0256 126.938 32.648 127.124 31.9153Z" fill="#18181B"/>
<path d="M142.421 42.6697C142.607 41.937 141.902 41.1266 140.848 40.8597C139.793 40.5928 138.787 40.9704 138.601 41.7031C138.415 42.4358 139.12 43.2462 140.174 43.5131C141.229 43.78 142.235 43.4024 142.421 42.6697Z" fill="#FF6584"/>
<path d="M145.423 46.6937C145.499 46.0112 145.176 45.415 144.701 45.3619C144.225 45.3089 143.778 45.8191 143.701 46.5016C143.625 47.1841 143.949 47.7803 144.424 47.8334C144.899 47.8864 145.347 47.3762 145.423 46.6937Z" fill="#E6E6E6"/>
<path d="M146.482 54.7538C146.558 54.0713 146.235 53.475 145.76 53.422C145.284 53.3689 144.837 53.8792 144.761 54.5617C144.684 55.2441 145.008 55.8404 145.483 55.8934C145.958 55.9465 146.406 55.4362 146.482 54.7538Z" fill="#18181B"/>
<path d="M133.314 39.3934C133.391 38.7109 133.067 38.1147 132.592 38.0616C132.116 38.0086 131.669 38.5188 131.593 39.2013C131.516 39.8838 131.84 40.48 132.315 40.5331C132.791 40.5861 133.238 40.0759 133.314 39.3934Z" fill="#E6E6E6"/>
<path d="M139.796 36.9618C139.872 36.2793 139.549 35.6831 139.074 35.63C138.598 35.577 138.151 36.0872 138.075 36.7697C137.998 37.4521 138.322 38.0484 138.797 38.1014C139.272 38.1545 139.72 37.6442 139.796 36.9618Z" fill="#FF6584"/>
<path d="M131.811 30.3919C131.887 29.7095 131.564 29.1132 131.088 29.0602C130.613 29.0071 130.166 29.5174 130.089 30.1998C130.013 30.8823 130.337 31.4786 130.812 31.5316C131.287 31.5846 131.735 31.0744 131.811 30.3919Z" fill="#18181B"/>
<path d="M34.8486 187.256C33.8759 186.858 33.0013 186.254 32.2854 185.485C31.5695 184.716 31.0294 183.801 30.7024 182.804C30.3754 181.806 30.2693 180.749 30.3915 179.706C30.5137 178.664 30.8612 177.66 31.4101 176.764L10.4387 147.325L17.1665 139.53L41.8185 174.678C43.259 175.712 44.2693 177.239 44.6582 178.968C45.047 180.697 44.7872 182.508 43.9281 184.059C43.0689 185.609 41.6702 186.791 39.9968 187.38C38.3234 187.97 36.4916 187.925 34.8486 187.256Z" fill="#FFB6B6"/>
<path d="M35.3306 93.9625C34.2696 93.339 33.0209 93.1137 31.8086 93.3268C30.5962 93.54 29.4996 94.1777 28.7157 95.1255L0.380615 134.7L26.6398 171.946L36.9152 160.924L20.9313 135.841L42.174 115.642C43.9196 111.823 44.1863 107.494 42.9224 103.49C41.6585 99.4856 38.9538 96.0914 35.3306 93.9625Z" fill="#673EE5"/>
<path d="M203.603 149.363H203.582L191.088 154.694L173.994 161.989C173.927 162.017 173.856 162.031 173.783 162.032C173.711 162.032 173.639 162.018 173.572 161.991L155.936 154.679L143.136 149.371L143.116 149.363H143.094C142.892 149.363 142.699 149.443 142.556 149.586C142.413 149.729 142.333 149.922 142.333 150.124V183.187C142.333 183.389 142.413 183.582 142.556 183.725C142.699 183.868 142.892 183.948 143.094 183.948H203.603C203.805 183.948 203.999 183.868 204.142 183.725C204.285 183.582 204.365 183.389 204.365 183.187V150.124C204.365 149.922 204.285 149.729 204.142 149.586C203.999 149.443 203.805 149.363 203.603 149.363Z" fill="white"/>
<path d="M203.495 149.363C203.473 149.363 203.451 149.356 203.433 149.343L173.362 128.394C173.27 128.331 173.162 128.297 173.05 128.297C172.939 128.297 172.83 128.331 172.739 128.395L142.884 149.343C142.861 149.36 142.831 149.366 142.803 149.361C142.775 149.356 142.749 149.34 142.733 149.316C142.716 149.293 142.71 149.264 142.715 149.235C142.72 149.207 142.736 149.182 142.759 149.165L172.614 128.217C172.742 128.128 172.894 128.08 173.05 128.08C173.206 128.079 173.358 128.127 173.486 128.216L203.557 149.165C203.576 149.178 203.591 149.197 203.598 149.219C203.606 149.241 203.606 149.265 203.599 149.287C203.592 149.309 203.578 149.328 203.56 149.342C203.541 149.355 203.518 149.363 203.495 149.363Z" fill="#3F3D56"/>
<path d="M144.616 150.335L173.24 129.22L202.082 151.838L174.715 167.986L159.857 164.615L144.616 150.335Z" fill="#E6E6E6"/>
<path d="M173.618 161.905C173.51 161.905 173.404 161.884 173.304 161.844L155.653 154.589V131.878C155.653 131.677 155.733 131.484 155.877 131.342C156.02 131.2 156.215 131.12 156.417 131.12H190.281C190.484 131.12 190.678 131.2 190.821 131.342C190.965 131.484 191.045 131.677 191.045 131.878V154.604L191.012 154.618L173.941 161.84C173.838 161.883 173.729 161.905 173.618 161.905Z" fill="#6C63FF"/>
<path d="M203.599 149.363H203.577L191.007 154.694L173.808 161.989C173.741 162.017 173.669 162.031 173.596 162.032C173.523 162.032 173.45 162.018 173.383 161.991L155.639 154.679L142.76 149.371L142.74 149.363H142.718C142.515 149.363 142.32 149.443 142.177 149.586C142.033 149.729 141.952 149.922 141.952 150.124V183.187C141.952 183.389 142.033 183.582 142.177 183.725C142.32 183.868 142.515 183.948 142.718 183.948H203.599C203.802 183.948 203.997 183.868 204.14 183.725C204.284 183.582 204.365 183.389 204.365 183.187V150.124C204.365 149.922 204.284 149.729 204.14 149.586C203.997 149.443 203.802 149.363 203.599 149.363ZM204.146 183.187C204.146 183.331 204.088 183.469 203.986 183.571C203.883 183.673 203.744 183.731 203.599 183.731H142.718C142.573 183.731 142.434 183.673 142.331 183.571C142.229 183.469 142.171 183.331 142.171 183.187V150.124C142.171 149.983 142.226 149.848 142.324 149.747C142.422 149.646 142.556 149.586 142.698 149.58L155.639 154.914L173.299 162.192C173.49 162.269 173.704 162.268 173.894 162.189L191.007 154.93L203.621 149.58C203.762 149.586 203.895 149.646 203.993 149.748C204.091 149.849 204.146 149.984 204.146 150.124L204.146 183.187Z" fill="#3F3D56"/>
<path d="M170.768 139.481H158.804C158.574 139.481 158.353 139.401 158.19 139.258C158.027 139.116 157.936 138.922 157.936 138.721C157.936 138.52 158.027 138.327 158.19 138.184C158.353 138.042 158.574 137.961 158.804 137.961H170.768C170.998 137.961 171.219 138.042 171.382 138.184C171.545 138.327 171.636 138.52 171.636 138.721C171.636 138.922 171.545 139.116 171.382 139.258C171.219 139.401 170.998 139.481 170.768 139.481Z" fill="white"/>
<path d="M164.665 136.061H158.818C158.584 136.061 158.36 135.961 158.194 135.783C158.029 135.604 157.936 135.363 157.936 135.111C157.936 134.859 158.029 134.617 158.194 134.439C158.36 134.261 158.584 134.161 158.818 134.161H164.665C164.899 134.161 165.123 134.261 165.289 134.439C165.454 134.617 165.547 134.859 165.547 135.111C165.547 135.363 165.454 135.604 165.289 135.783C165.123 135.961 164.899 136.061 164.665 136.061Z" fill="white"/>
<path d="M182.193 148.223H164.124C163.896 148.223 163.677 148.143 163.516 148C163.355 147.858 163.264 147.664 163.264 147.463C163.264 147.261 163.355 147.068 163.516 146.925C163.677 146.783 163.896 146.703 164.124 146.703H182.193C182.421 146.703 182.64 146.783 182.801 146.925C182.963 147.068 183.053 147.261 183.053 147.463C183.053 147.664 182.963 147.858 182.801 148C182.64 148.143 182.421 148.223 182.193 148.223Z" fill="white"/>
<path d="M182.192 152.403H164.126C164.013 152.403 163.901 152.379 163.796 152.331C163.691 152.284 163.596 152.214 163.516 152.126C163.436 152.037 163.373 151.932 163.33 151.817C163.286 151.702 163.264 151.578 163.264 151.453C163.264 151.328 163.286 151.204 163.33 151.089C163.373 150.974 163.436 150.869 163.516 150.781C163.596 150.692 163.691 150.622 163.796 150.575C163.901 150.527 164.013 150.503 164.126 150.503H182.192C182.305 150.503 182.417 150.527 182.521 150.575C182.626 150.622 182.721 150.692 182.801 150.781C182.881 150.869 182.945 150.974 182.988 151.089C183.031 151.204 183.053 151.328 183.053 151.453C183.053 151.578 183.031 151.702 182.988 151.817C182.945 151.932 182.881 152.037 182.801 152.126C182.721 152.214 182.626 152.284 182.521 152.331C182.417 152.379 182.305 152.403 182.192 152.403Z" fill="white"/>
</svg>
