<svg width="20" height="21" viewBox="0 0 20 21" fill="none" xmlns="http://www.w3.org/2000/svg">
<path d="M9.99575 18.7286C10.1297 18.7286 10.3475 18.6786 10.565 18.5611C15.3197 15.8911 16.96 14.7611 16.96 11.7057V5.30215C16.96 4.42358 16.575 4.14715 15.8718 3.84572C14.8843 3.43572 11.6868 2.28858 10.699 1.94572C10.4729 1.87036 10.2386 1.82001 9.99575 1.82001C9.76147 1.82001 9.52718 1.88715 9.30111 1.94572C8.31325 2.24679 5.11575 3.44394 4.12825 3.84572C3.42468 4.13858 3.04004 4.42322 3.04004 5.30215V11.7057C3.04004 14.7607 4.68897 15.8825 9.43504 18.5611C9.6529 18.6782 9.86183 18.7286 9.99575 18.7286ZM9.99575 17.205C9.8704 17.205 9.7279 17.155 9.47682 17.0043C5.60968 14.6604 4.37075 13.9739 4.37075 11.3961V5.55286C4.37075 5.26822 4.42932 5.15965 4.6554 5.06715C5.9279 4.56536 8.3804 3.69465 9.66968 3.23429C9.79468 3.18429 9.90397 3.15929 9.99575 3.15929C10.0965 3.15929 10.1968 3.18429 10.3308 3.23429C11.62 3.69501 14.0472 4.62358 15.3447 5.06751C15.5708 5.15108 15.6293 5.26822 15.6293 5.55322V11.3957C15.6293 13.9736 14.3822 14.6518 10.5233 17.0039C10.2722 17.1547 10.1297 17.205 9.99575 17.205ZM8.94933 14.2332C9.23397 14.2332 9.46004 14.0993 9.62754 13.8314L13.7625 7.32786C13.8715 7.16894 13.9718 6.97644 13.9718 6.79215C13.9718 6.40715 13.629 6.16429 13.2772 6.16429C13.0593 6.16429 12.85 6.29822 12.6997 6.54929L8.91611 12.6014L6.97397 10.0818C6.78147 9.83894 6.58897 9.74679 6.35468 9.74679C5.98647 9.74679 5.70182 10.0396 5.70182 10.4164C5.70182 10.6007 5.77682 10.785 5.89432 10.9439L8.22968 13.8404C8.46397 14.1082 8.67325 14.2336 8.94968 14.2336" fill="#18181B"/>
</svg>
