<svg width="16" height="17" viewBox="0 0 16 17" fill="none" xmlns="http://www.w3.org/2000/svg">
<path d="M3.01798 16.2574H13.1798C14.9294 16.2574 15.7998 15.3871 15.7998 13.6628V3.44172C15.7998 1.71743 14.9294 0.847076 13.1798 0.847076H3.01798C1.2769 0.847076 0.389404 1.70922 0.389404 3.44172V13.6631C0.389404 15.3956 1.2769 16.2574 3.01798 16.2574ZM6.96083 12.8342C6.66762 12.8342 6.45012 12.7089 6.21548 12.4242L3.79655 9.44422C3.67083 9.28529 3.59548 9.08422 3.59548 8.90029C3.59548 8.50672 3.90548 8.20529 4.27369 8.20529C4.51655 8.20529 4.72548 8.29743 4.91798 8.55708L6.91869 11.1435L10.8108 4.90743C10.9701 4.64779 11.1876 4.52243 11.4055 4.52243C11.7733 4.52243 12.1333 4.76529 12.1333 5.16708C12.1333 5.35101 12.0248 5.55208 11.9158 5.71922L7.66369 12.4239C7.4794 12.6999 7.24512 12.8339 6.96048 12.8339" fill="#1A1A1A"/>
</svg>
