<svg width="574" height="384" viewBox="0 0 574 384" fill="none" xmlns="http://www.w3.org/2000/svg">
<g clip-path="url(#clip0_137_4064)">
<path d="M573.455 204.09C573.455 281.762 524.226 347.942 455.271 373.124C444.781 376.962 433.953 379.804 422.931 381.612C392.607 386.585 361.516 383.762 332.584 373.407C263.193 348.432 213.603 282.029 213.636 204.052C213.636 104.731 294.186 24.1803 393.546 24.1803C431.097 24.1257 467.715 35.8735 498.226 57.7635C543.776 90.398 573.455 143.777 573.455 204.09Z" fill="#E5E5E5"/>
<path d="M455.271 373.124C444.781 376.962 433.953 379.804 422.93 381.612C392.606 386.585 361.515 383.762 332.583 373.407L340.891 340.069L341.393 338.068L358.348 338.134L443.527 338.439L444.618 341.661L455.271 373.124Z" fill="#2F2E41"/>
<path d="M156.822 0H0.544922V176.832H156.822V0Z" fill="#E6E6E6"/>
<path d="M153.762 3.74103H3.33105V173.092H153.762V3.74103Z" fill="white"/>
<path d="M78.6833 167.07C83.3403 167.07 87.1156 163.295 87.1156 158.638C87.1156 153.981 83.3403 150.206 78.6833 150.206C74.0263 150.206 70.251 153.981 70.251 158.638C70.251 163.295 74.0263 167.07 78.6833 167.07Z" fill="#E6E6E6"/>
<path d="M77.2594 63.6875H28.8271V68.6421H77.2594V63.6875Z" fill="#E6E6E6"/>
<path d="M101.924 78.5345H28.8271V83.4891H101.924V78.5345Z" fill="#673EE5"/>
<path d="M94.7494 93.4746H28.8271V98.4292H94.7494V93.4746Z" fill="#E6E6E6"/>
<path d="M130.625 108.02H28.8271V112.975H130.625V108.02Z" fill="#673EE5"/>
<path d="M112.848 121.873H29.8848V126.827H112.848V121.873Z" fill="#E6E6E6"/>
<path d="M222.766 287.742C223.36 288.352 223.905 289.008 224.396 289.704L300.781 287.835L309.692 271.552L336.024 281.788L323.049 312.148C322.001 314.6 320.186 316.647 317.876 317.98C315.565 319.313 312.885 319.861 310.237 319.541L223.935 309.116C221.899 311.693 219.127 313.589 215.988 314.552C212.848 315.516 209.489 315.5 206.358 314.508C203.228 313.516 200.473 311.594 198.461 308.998C196.449 306.402 195.275 303.255 195.096 299.976C194.916 296.697 195.739 293.441 197.455 290.64C199.171 287.84 201.698 285.629 204.702 284.3C207.706 282.972 211.042 282.589 214.269 283.203C217.495 283.817 220.458 285.399 222.763 287.738L222.766 287.742Z" fill="#9F616A"/>
<path d="M325.576 194.761L361.323 183.046L371.822 168.647L422.914 171.671L430.416 188.473L457.659 201.346L453.472 279.102L446.31 351.871C409.478 332.799 340.741 347.34 340.14 347.576L325.576 194.761Z" fill="#673EE5"/>
<path d="M333.218 300.008L296.857 285.46L297.012 284.813C297.168 284.159 312.644 219.491 314.698 209.099C316.839 198.272 324.659 195.279 324.991 195.157L325.234 195.068L339.624 199.448L345.943 249.103L333.218 300.008Z" fill="#673EE5"/>
<path d="M411.727 348.673C412.579 348.652 413.432 348.699 414.277 348.813L464.841 291.53L458.959 273.928L484.369 261.579L497.811 291.734C498.897 294.171 499.163 296.893 498.57 299.494C497.977 302.094 496.556 304.432 494.521 306.156L428.2 362.35C428.705 365.595 428.21 368.917 426.782 371.874C425.353 374.831 423.058 377.283 420.202 378.904C417.345 380.525 414.063 381.237 410.792 380.948C407.521 380.658 404.415 379.379 401.888 377.281C399.362 375.183 397.534 372.366 396.647 369.203C395.761 366.041 395.858 362.684 396.926 359.578C397.994 356.473 399.982 353.766 402.626 351.818C405.27 349.87 408.445 348.773 411.727 348.673Z" fill="#9F616A"/>
<path d="M460.804 297.106L439.712 247.491L447.939 212.932L456.803 201.733C457.452 201.456 458.152 201.316 458.858 201.322C459.564 201.329 460.261 201.482 460.905 201.771C464.176 203.087 466.956 207.12 469.179 213.757L488.947 270.062L460.804 297.106Z" fill="#673EE5"/>
<path d="M351.37 150.262V112.857C351.349 106.275 352.623 99.753 355.122 93.6635C357.621 87.574 361.295 82.0363 365.934 77.3666C370.572 72.6968 376.086 68.9865 382.158 66.4475C388.231 63.9084 394.745 62.5904 401.327 62.5686C407.909 62.5468 414.431 63.8216 420.521 66.3204C426.61 68.8191 432.148 72.4928 436.818 77.1317C441.487 81.7706 445.198 87.2839 447.737 93.3567C450.276 99.4295 451.594 105.943 451.616 112.525C451.616 112.636 451.616 112.747 451.616 112.857V150.262C451.614 152.047 450.904 153.759 449.641 155.021C448.379 156.283 446.668 156.993 444.883 156.995H358.103C356.318 156.993 354.607 156.283 353.345 155.021C352.082 153.759 351.372 152.047 351.37 150.262Z" fill="#2F2E41"/>
<path d="M391.193 156.124C411.489 156.124 427.941 139.671 427.941 119.376C427.941 99.0803 411.489 82.6277 391.193 82.6277C370.898 82.6277 354.445 99.0803 354.445 119.376C354.445 139.671 370.898 156.124 391.193 156.124Z" fill="#9F616A"/>
<path d="M339.513 115.85C339.525 105.338 343.706 95.2596 351.139 87.8264C358.572 80.3933 368.65 76.2121 379.162 76.2003H386.644C397.156 76.2122 407.234 80.3933 414.667 87.8265C422.1 95.2596 426.281 105.338 426.292 115.85V116.598H410.482L405.09 101.496L404.011 116.598H395.841L393.121 108.979L392.576 116.598H339.513V115.85Z" fill="#2F2E41"/>
<path d="M387.578 161.202C386.835 160.197 386.392 159.002 386.299 157.756C386.206 156.51 386.466 155.263 387.05 154.159C394.978 139.08 406.077 111.218 391.345 94.0347L390.288 92.8015H433.061V157.018L394.205 163.874C393.812 163.944 393.413 163.979 393.014 163.979C391.953 163.979 390.908 163.728 389.963 163.245C389.019 162.763 388.202 162.063 387.58 161.203L387.578 161.202Z" fill="#2F2E41"/>
<path d="M78.5477 13.7724C75.0012 13.7722 71.5342 14.8237 68.5853 16.7939C65.6364 18.7641 63.3379 21.5645 61.9805 24.841C60.6232 28.1175 60.2679 31.7229 60.9596 35.2013C61.6513 38.6797 63.359 41.8749 65.8666 44.3828C68.3742 46.8907 71.5692 48.5986 75.0476 49.2907C78.5259 49.9828 82.1314 49.6279 85.408 48.2709C88.6846 46.9138 91.4852 44.6157 93.4557 41.6669C95.4262 38.7182 96.4781 35.2514 96.4783 31.7049V31.7039C96.4783 29.3491 96.0145 27.0174 95.1133 24.8418C94.2122 22.6663 92.8913 20.6895 91.2263 19.0244C89.5612 17.3594 87.5844 16.0385 85.4088 15.1374C83.2333 14.2362 80.9016 13.7724 78.5468 13.7724H78.5477ZM78.5477 19.1514C79.6115 19.1514 80.6515 19.4669 81.5361 20.0579C82.4206 20.649 83.1101 21.489 83.5172 22.4719C83.9243 23.4548 84.0309 24.5363 83.8233 25.5797C83.6158 26.6232 83.1035 27.5816 82.3512 28.3339C81.599 29.0861 80.6405 29.5984 79.5971 29.806C78.5537 30.0135 77.4721 29.907 76.4893 29.4999C75.5064 29.0928 74.6663 28.4034 74.0752 27.5188C73.4842 26.6342 73.1687 25.5943 73.1687 24.5304C73.1687 23.1038 73.7354 21.7356 74.7442 20.7269C75.7529 19.7181 77.1211 19.1514 78.5477 19.1514ZM78.5477 45.0482C76.4226 45.0385 74.3319 44.5104 72.4571 43.5099C70.5822 42.5093 68.9798 41.0665 67.7888 39.3065C67.8752 35.7202 74.9614 33.7461 78.5477 33.7461C82.134 33.7461 89.2202 35.7202 89.3066 39.3065C88.1142 41.0652 86.5115 42.5071 84.637 43.5075C82.7624 44.5079 80.6724 45.0367 78.5477 45.0482Z" fill="#673EE5"/>
<path d="M78.7566 161.87C86.1438 148.333 103.84 139.76 118.317 147.487C124.833 150.965 130.012 157.117 131.657 164.388C133.565 172.834 129.544 180.888 125.394 187.985C123.141 191.836 120.672 195.609 118.808 199.672C116.877 203.879 115.497 208.742 116.951 213.319C118.259 217.442 121.54 220.441 125.133 222.645C129.098 224.986 133.316 226.869 137.705 228.26C146.741 231.265 156.271 232.498 165.774 231.892C170.497 231.571 175.18 230.814 179.763 229.63C184.639 228.387 189.423 226.812 194.307 225.596C202.461 223.571 211.758 222.564 219.49 226.632C227.001 230.586 230.363 238.854 231.402 246.898C233.323 261.752 227.433 277.167 216.799 287.569C211.697 292.56 205.277 296.683 198.285 298.37C192.184 299.842 184.349 299.747 179.494 295.186C174.076 290.096 175.351 281.933 179.654 276.563C185.147 269.71 194.452 268.065 202.755 267.898C212.201 267.708 221.638 269.115 231.079 268.24C235.687 267.882 240.208 266.791 244.473 265.009C248.222 263.36 251.642 261.046 254.567 258.179C260.395 252.517 264.325 244.973 266.28 237.13C268.633 227.699 268.12 217.786 266.293 208.313C265.32 203.428 264.066 198.603 262.538 193.862C261.908 191.861 258.748 192.717 259.384 194.731C265.01 212.572 268.147 233.201 257.277 249.765C252.778 256.789 245.77 261.834 237.681 263.87C228.273 266.209 218.401 265.053 208.836 264.705C199.742 264.374 189.755 264.731 181.959 270.028C175.563 274.373 171.09 282.637 173.023 290.438C174.887 297.962 182.117 301.778 189.349 302.366C196.936 302.984 204.402 300.437 210.774 296.455C224.029 288.172 232.843 273.605 234.687 258.161C235.648 250.113 234.67 241.445 231.021 234.141C229.098 230.187 226.105 226.851 222.381 224.512C218.669 222.236 214.38 221.116 210.073 220.719C200.288 219.818 190.887 223.178 181.605 225.748C176.863 227.123 172.003 228.051 167.088 228.519C162.318 228.914 157.52 228.836 152.765 228.285C148.047 227.729 143.397 226.697 138.886 225.205C134.466 223.839 130.234 221.925 126.288 219.51C122.807 217.284 119.797 214.095 119.626 209.751C119.44 205.04 121.815 200.633 124.074 196.662C128.538 188.816 134.051 181.142 135.215 171.957C136.234 163.923 133.002 156.004 127.419 150.274C124.621 147.365 121.253 145.066 117.525 143.519C113.797 141.973 109.79 141.213 105.755 141.286C97.4721 141.524 89.5413 145.126 83.4489 150.658C80.4273 153.403 77.8846 156.633 75.9254 160.215C74.9163 162.063 77.7398 163.716 78.75 161.865L78.7566 161.87Z" fill="#3F3D56"/>
</g>
<defs>
<clipPath id="clip0_137_4064">
<rect width="572.91" height="384" fill="white" transform="translate(0.544922)"/>
</clipPath>
</defs>
</svg>
