<svg width="436" height="167" viewBox="0 0 436 167" fill="none" xmlns="http://www.w3.org/2000/svg">
<path d="M0.666667 116.433C0.666667 119.379 3.05448 121.767 6 121.767C8.94552 121.767 11.3333 119.379 11.3333 116.433C11.3333 113.488 8.94552 111.1 6 111.1C3.05448 111.1 0.666667 113.488 0.666667 116.433ZM190.987 21.6248L191.858 21.1336L190.987 21.6248ZM436 118.5L425.978 112.765L426.022 124.312L436 118.5ZM6 116.433C6.77812 117.062 6.77812 117.062 6.77811 117.062C6.77812 117.062 6.77811 117.062 6.77812 117.062C6.77812 117.062 6.77813 117.062 6.77815 117.061C6.77818 117.061 6.77824 117.061 6.77833 117.061C6.7785 117.061 6.77877 117.061 6.77915 117.06C6.7799 117.059 6.78105 117.058 6.78262 117.056C6.78575 117.052 6.79051 117.046 6.79688 117.038C6.80964 117.023 6.82886 116.999 6.85449 116.967C6.90574 116.904 6.98258 116.81 7.08441 116.685C7.28807 116.435 7.59169 116.065 7.99046 115.581L6.44808 114.308C6.04684 114.794 5.74083 115.168 5.53486 115.42C5.43188 115.547 5.3539 115.642 5.30154 115.707C5.27535 115.739 5.25557 115.764 5.24227 115.78C5.23562 115.788 5.23059 115.795 5.22719 115.799C5.22549 115.801 5.22419 115.802 5.22331 115.804C5.22286 115.804 5.22252 115.804 5.22229 115.805C5.22217 115.805 5.22207 115.805 5.222 115.805C5.22197 115.805 5.22194 115.805 5.22192 115.805C5.22191 115.805 5.2219 115.805 5.22189 115.805C5.22189 115.805 5.22188 115.805 6 116.433ZM10.6198 112.43C11.3918 111.513 12.2729 110.474 13.2562 109.324L11.7361 108.024C10.7494 109.178 9.8651 110.221 9.09 111.142L10.6198 112.43ZM15.9229 106.226C16.7486 105.273 17.6242 104.269 18.5472 103.217L17.0438 101.897C16.118 102.953 15.2397 103.96 14.4114 104.916L15.9229 106.226ZM21.247 100.158C22.1259 99.1685 23.039 98.146 23.9847 97.0938L22.4972 95.7569C21.5488 96.8122 20.633 97.8375 19.7515 98.8301L21.247 100.158ZM26.6752 94.1176C27.5813 93.1209 28.5128 92.1022 29.4684 91.0636L27.9966 89.7094C27.0383 90.751 26.1041 91.7726 25.1954 92.7721L26.6752 94.1176ZM32.1834 88.1297C33.1039 87.1407 34.0438 86.1367 35.0023 85.1192L33.5465 83.7478C32.5852 84.7683 31.6426 85.7752 30.7194 86.767L32.1834 88.1297ZM37.7614 82.2076C38.697 81.2261 39.6483 80.2341 40.6145 79.233L39.1755 77.8441C38.2064 78.8482 37.2522 79.8432 36.3138 80.8276L37.7614 82.2076ZM43.4108 76.3538C44.3554 75.3871 45.3128 74.4134 46.2823 73.4341L44.861 72.027C43.8884 73.0095 42.9279 73.9862 41.9803 74.9559L43.4108 76.3538ZM49.1354 70.5708C50.0895 69.6195 51.0542 68.6641 52.0288 67.7056L50.6264 66.2796C49.6485 67.2414 48.6806 68.2 47.7233 69.1544L49.1354 70.5708ZM54.9384 64.8641C55.9036 63.9281 56.8776 62.9902 57.8599 62.0515L56.4781 60.6056C55.4923 61.5478 54.5147 62.489 53.5461 63.4283L54.9384 64.8641ZM60.8217 59.2423C61.8004 58.3212 62.7864 57.4002 63.7794 56.4802L62.4201 55.0131C61.4232 55.9367 60.4333 56.8613 59.451 57.7859L60.8217 59.2423ZM66.7783 53.7245C67.7759 52.8153 68.7798 51.9082 69.7894 51.0039L68.455 49.5141C67.441 50.4223 66.4329 51.3333 65.4311 52.2462L66.7783 53.7245ZM72.8266 48.3079C73.8433 47.4136 74.8652 46.5231 75.8918 45.6373L74.5852 44.1231C73.5537 45.0132 72.5271 45.9078 71.5057 46.8061L72.8266 48.3079ZM78.9786 43.0004C80.0118 42.1266 81.0492 41.2585 82.0903 40.3968L80.815 38.8561C79.7684 39.7224 78.7257 40.595 77.6872 41.4732L78.9786 43.0004ZM85.2372 37.8213C86.29 36.9696 87.3459 36.1253 88.4045 35.2894L87.165 33.7197C86.1001 34.5607 85.038 35.4099 83.9792 36.2665L85.2372 37.8213ZM91.6067 32.793C92.6833 31.9647 93.7621 31.1459 94.8426 30.3376L93.6445 28.7362C92.5566 29.55 91.4707 30.3743 90.3871 31.2079L91.6067 32.793ZM98.0939 27.9411C99.1989 27.1389 100.305 26.3487 101.412 25.5713L100.262 23.9347C99.1467 24.7182 98.0321 25.5145 96.919 26.3226L98.0939 27.9411ZM104.733 23.2791C105.863 22.5132 106.993 21.7617 108.123 21.0259L107.031 19.3501C105.891 20.0928 104.751 20.851 103.611 21.6236L104.733 23.2791ZM111.533 18.8512C112.687 18.1313 113.84 17.4289 114.99 16.7451L113.969 15.0257C112.805 15.7172 111.64 16.4271 110.474 17.1543L111.533 18.8512ZM118.501 14.7142C119.682 14.0501 120.86 13.407 122.034 12.7861L121.099 11.0181C119.909 11.6473 118.716 12.2987 117.521 12.971L118.501 14.7142ZM125.656 10.9371C126.867 10.3411 128.074 9.77055 129.275 9.22677L128.451 7.40473C127.229 7.95773 126.003 8.53748 124.773 9.14251L125.656 10.9371ZM133.013 7.61525C134.262 7.10451 135.503 6.62495 136.736 6.17809L136.055 4.29772C134.795 4.75427 133.528 5.24366 132.256 5.76417L133.013 7.61525ZM140.585 4.88311C141.875 4.48336 143.154 4.12236 144.423 3.80189L143.933 1.86283C142.628 2.1924 141.315 2.56307 139.993 2.97272L140.585 4.88311ZM148.358 2.93252C149.688 2.68248 151.002 2.481 152.301 2.33017L152.071 0.343518C150.723 0.500041 149.361 0.708754 147.988 0.966976L148.358 2.93252ZM156.27 2.02744C157.618 1.98044 158.947 1.99349 160.255 2.06907L160.371 0.072397C158.998 -0.00691164 157.607 -0.020384 156.2 0.0286531L156.27 2.02744ZM164.172 2.49512C165.486 2.70838 166.777 2.99203 168.042 3.34896L168.585 1.42412C167.244 1.04583 165.879 0.745978 164.492 0.520935L164.172 2.49512ZM171.754 4.64065C172.964 5.14565 174.148 5.72689 175.305 6.38763L176.297 4.6509C175.068 3.94908 173.81 3.33151 172.525 2.79498L171.754 4.64065ZM178.578 8.52607C179.62 9.29793 180.637 10.1442 181.628 11.0679L182.991 9.60497C181.947 8.63115 180.872 7.73666 179.769 6.91911L178.578 8.52607ZM184.368 13.8993C185.216 14.8676 186.042 15.9016 186.844 17.0036L188.461 15.8264C187.624 14.6777 186.761 13.5966 185.872 12.5815L184.368 13.8993ZM189.058 20.3181C189.416 20.9016 189.769 21.5009 190.116 22.1161L191.858 21.1336C191.499 20.4974 191.134 19.8769 190.763 19.2719L189.058 20.3181ZM190.116 22.1161C190.437 22.686 190.749 23.2651 191.052 23.8531L192.83 22.9385C192.516 22.3282 192.192 21.7264 191.858 21.1336L190.116 22.1161ZM192.745 27.4604C193.264 28.6719 193.749 29.9149 194.202 31.1871L196.086 30.5151C195.619 29.2065 195.119 27.925 194.584 26.6734L192.745 27.4604ZM195.438 34.9756C195.814 36.239 196.164 37.5265 196.488 38.8362L198.429 38.3553C198.098 37.0174 197.74 35.6999 197.355 34.4051L195.438 34.9756ZM197.373 42.7552C197.641 44.057 197.886 45.3773 198.112 46.7142L200.084 46.3808C199.855 45.0224 199.605 43.6791 199.332 42.353L197.373 42.7552ZM198.719 50.6778C198.902 51.9969 199.067 53.3296 199.217 54.6742L201.204 54.4527C201.053 53.0918 200.885 51.7417 200.701 50.4042L198.719 50.6778ZM199.617 58.6948C199.735 60.0233 199.839 61.3614 199.931 62.7076L201.927 62.5705C201.833 61.2122 201.728 59.8611 201.609 58.5187L199.617 58.6948ZM200.173 66.7364C200.243 68.0775 200.302 69.4249 200.353 70.777L202.351 70.7021C202.3 69.3412 202.241 67.9843 202.171 66.6329L200.173 66.7364ZM200.479 74.8121C200.513 76.1573 200.54 77.5056 200.561 78.8556L202.561 78.8243C202.54 77.4685 202.513 76.1136 202.478 74.7612L200.479 74.8121ZM200.608 82.9013C200.619 84.2507 200.624 85.6004 200.627 86.9489L202.627 86.945C202.624 85.5933 202.619 84.2397 202.608 82.8857L200.608 82.9013ZM200.626 91C200.623 92.3516 200.619 93.7004 200.613 95.0452L202.613 95.0532C202.619 93.7079 202.623 92.3576 202.626 91.004L200.626 91ZM200.596 99.1049C200.591 100.464 200.586 101.817 200.583 103.162L202.583 103.166C202.586 101.823 202.591 100.471 202.596 99.1131L200.596 99.1049ZM200.583 107.209C200.586 108.575 200.592 109.933 200.604 111.279L202.604 111.261C202.592 109.92 202.586 108.567 202.583 107.204L200.583 107.209ZM200.659 115.346C200.684 116.712 200.716 118.064 200.757 119.401L202.756 119.339C202.715 118.012 202.683 116.668 202.658 115.309L200.659 115.346ZM200.915 123.465C200.98 124.845 201.058 126.206 201.149 127.546L203.144 127.409C203.054 126.085 202.977 124.738 202.913 123.37L200.915 123.465ZM201.479 131.615C201.61 132.994 201.76 134.346 201.93 135.668L203.914 135.413C203.746 134.114 203.599 132.784 203.47 131.425L201.479 131.615ZM202.535 139.704C202.774 141.085 203.041 142.428 203.341 143.729L205.29 143.28C204.999 142.019 204.739 140.712 204.506 139.364L202.535 139.704ZM204.407 147.72C204.826 149.08 205.291 150.383 205.808 151.623L207.654 150.854C207.164 149.679 206.72 148.437 206.318 147.131L204.407 147.72ZM207.644 155.369C208.364 156.618 209.158 157.78 210.037 158.843L211.579 157.57C210.779 156.601 210.046 155.533 209.377 154.371L207.644 155.369ZM213.058 161.832C214.161 162.713 215.358 163.473 216.657 164.102L217.529 162.301C216.366 161.738 215.294 161.059 214.307 160.27L213.058 161.832ZM220.649 165.533C221.957 165.857 223.342 166.073 224.808 166.177L224.95 164.182C223.59 164.085 222.319 163.886 221.13 163.592L220.649 165.533ZM228.976 166.186C229.674 166.143 230.387 166.079 231.117 165.993L230.883 164.007C230.189 164.089 229.513 164.149 228.854 164.19L228.976 166.186ZM231.117 165.993C231.785 165.915 232.456 165.83 233.13 165.74L232.865 163.758C232.201 163.846 231.541 163.93 230.883 164.007L231.117 165.993ZM237.177 165.138C238.51 164.92 239.854 164.682 241.209 164.425L240.836 162.46C239.497 162.714 238.17 162.949 236.855 163.164L237.177 165.138ZM245.203 163.622C246.518 163.342 247.842 163.047 249.177 162.736L248.724 160.788C247.401 161.096 246.089 161.389 244.788 161.665L245.203 163.622ZM253.139 161.779C254.448 161.451 255.765 161.11 257.092 160.758L256.579 158.825C255.26 159.175 253.952 159.513 252.654 159.839L253.139 161.779ZM261.018 159.687C262.312 159.326 263.614 158.954 264.925 158.573L264.366 156.653C263.062 157.032 261.766 157.402 260.48 157.761L261.018 159.687ZM268.829 157.418C270.121 157.03 271.421 156.634 272.729 156.23L272.139 154.319C270.835 154.721 269.54 155.116 268.254 155.503L268.829 157.418ZM276.598 155.022C277.881 154.617 279.173 154.205 280.471 153.788L279.86 151.884C278.564 152.3 277.276 152.71 275.996 153.114L276.598 155.022ZM284.349 152.535C285.625 152.12 286.908 151.701 288.198 151.277L287.574 149.377C286.286 149.8 285.004 150.219 283.73 150.633L284.349 152.535ZM292.057 150.007C293.337 149.584 294.625 149.158 295.919 148.729L295.29 146.831C293.996 147.259 292.709 147.685 291.43 148.108L292.057 150.007ZM299.763 147.455C301.042 147.032 302.328 146.606 303.62 146.179L302.993 144.28C301.7 144.707 300.413 145.133 299.134 145.557L299.763 147.455ZM307.474 144.908C308.752 144.488 310.035 144.067 311.325 143.646L310.704 141.745C309.413 142.167 308.128 142.588 306.85 143.008L307.474 144.908ZM315.192 142.39C316.47 141.977 317.755 141.564 319.045 141.152L318.437 139.246C317.144 139.659 315.857 140.073 314.577 140.487L315.192 142.39ZM322.912 139.925C324.197 139.52 325.488 139.117 326.785 138.715L326.193 136.805C324.893 137.207 323.599 137.612 322.311 138.017L322.912 139.925ZM330.655 137.527C331.946 137.134 333.243 136.744 334.545 136.356L333.974 134.44C332.668 134.828 331.368 135.22 330.074 135.613L330.655 137.527ZM338.425 135.214C339.719 134.838 341.018 134.465 342.323 134.095L341.777 132.17C340.468 132.542 339.165 132.916 337.867 133.294L338.425 135.214ZM346.225 133.004C347.522 132.646 348.825 132.292 350.133 131.943L349.616 130.01C348.303 130.361 346.996 130.717 345.693 131.076L346.225 133.004ZM354.056 130.911C355.357 130.575 356.664 130.243 357.975 129.916L357.492 127.975C356.174 128.304 354.862 128.637 353.555 128.975L354.056 130.911ZM361.916 128.953C363.224 128.64 364.536 128.332 365.853 128.03L365.405 126.08C364.082 126.384 362.764 126.693 361.45 127.008L361.916 128.953ZM369.807 127.143C371.121 126.855 372.44 126.573 373.764 126.298L373.357 124.34C372.026 124.617 370.7 124.9 369.379 125.189L369.807 127.143ZM377.732 125.494C379.053 125.234 380.379 124.981 381.71 124.734L381.345 122.768C380.007 123.015 378.674 123.27 377.345 123.532L377.732 125.494ZM385.691 124.02C387.018 123.79 388.351 123.567 389.688 123.352L389.37 121.377C388.025 121.594 386.685 121.818 385.349 122.05L385.691 124.02ZM393.681 122.734C395.014 122.536 396.352 122.345 397.695 122.163L397.426 120.181C396.075 120.365 394.729 120.556 393.387 120.755L393.681 122.734ZM401.699 121.647C403.037 121.483 404.378 121.327 405.724 121.181L405.508 119.193C404.153 119.34 402.802 119.497 401.456 119.661L401.699 121.647ZM409.743 120.77C411.083 120.643 412.428 120.524 413.776 120.415L413.615 118.421C412.257 118.531 410.903 118.651 409.553 118.779L409.743 120.77ZM417.806 120.116C419.149 120.026 420.495 119.945 421.846 119.874L421.741 117.877C420.381 117.949 419.025 118.03 417.673 118.12L417.806 120.116ZM425.884 119.692C427.228 119.641 428.576 119.6 429.927 119.57L429.882 117.57C428.52 117.601 427.162 117.642 425.809 117.694L425.884 119.692Z" fill="#2ECE8E"/>
</svg>
