<svg width="60" height="60" viewBox="0 0 60 60" fill="none" xmlns="http://www.w3.org/2000/svg">
<rect width="60" height="60" rx="24" fill="#2ECE8E"/>
<path d="M43.75 23.125C43.75 21.3016 43.0257 19.553 41.7364 18.2636C40.447 16.9743 38.6984 16.25 36.875 16.25C35.0516 16.25 33.303 16.9743 32.0136 18.2636C30.7243 19.553 30 21.3016 30 23.125C30 24.9484 30.7243 26.697 32.0136 27.9864C33.303 29.2757 35.0516 30 36.875 30C38.6984 30 40.447 29.2757 41.7364 27.9864C43.0257 26.697 43.75 24.9484 43.75 23.125ZM37.5 23.75L37.5012 26.88C37.5012 27.0458 37.4354 27.2047 37.3182 27.3219C37.201 27.4392 37.042 27.505 36.8762 27.505C36.7105 27.505 36.5515 27.4392 36.4343 27.3219C36.3171 27.2047 36.2512 27.0458 36.2512 26.88V23.75H33.12C32.9542 23.75 32.7953 23.6842 32.6781 23.5669C32.5608 23.4497 32.495 23.2908 32.495 23.125C32.495 22.9592 32.5608 22.8003 32.6781 22.6831C32.7953 22.5658 32.9542 22.5 33.12 22.5H36.25V19.375C36.25 19.2092 36.3158 19.0503 36.4331 18.9331C36.5503 18.8158 36.7092 18.75 36.875 18.75C37.0408 18.75 37.1997 18.8158 37.3169 18.9331C37.4342 19.0503 37.5 19.2092 37.5 19.375V22.5H40.6212C40.787 22.5 40.946 22.5658 41.0632 22.6831C41.1804 22.8003 41.2462 22.9592 41.2462 23.125C41.2462 23.2908 41.1804 23.4497 41.0632 23.5669C40.946 23.6842 40.787 23.75 40.6212 23.75H37.5ZM36.875 31.25C38.9722 31.2525 40.9886 30.4414 42.5 28.9875V35.9375C42.5001 36.9752 42.1031 37.9735 41.3904 38.7278C40.6778 39.482 39.7035 39.935 38.6675 39.9938L38.4375 40H21.5625C20.5248 40.0001 19.5265 39.6031 18.7722 38.8904C18.018 38.1778 17.565 37.2035 17.5063 36.1675L17.5 35.9375V25.76L29.565 32.08C29.6992 32.1503 29.8485 32.187 30 32.187C30.1515 32.187 30.3008 32.1503 30.435 32.08L33.4563 30.4975C34.5276 30.9938 35.6943 31.2506 36.875 31.25ZM21.5625 20H29.3725C28.9608 20.9904 28.7492 22.0525 28.75 23.125C28.75 25.6163 29.8712 27.845 31.635 29.335L30 30.1912L17.52 23.6537C17.6172 22.6919 18.0542 21.7962 18.7526 21.1276C19.4509 20.459 20.3648 20.0614 21.33 20.0063L21.5625 20Z" fill="white"/>
</svg>
