<svg width="60" height="60" viewBox="0 0 60 60" fill="none" xmlns="http://www.w3.org/2000/svg">
<rect width="60" height="60" rx="24" fill="#3772FF"/>
<path d="M38.75 18.75H21.25C19.875 18.75 18.75 19.875 18.75 21.25V38.75C18.75 40.125 19.875 41.25 21.25 41.25H38.75C40.125 41.25 41.25 40.125 41.25 38.75V21.25C41.25 19.875 40.125 18.75 38.75 18.75ZM23.75 23.75H26.25V26.25H23.75V23.75ZM23.75 28.75H26.25V31.25H23.75V28.75ZM23.75 33.75H26.25V36.25H23.75V33.75ZM36.25 36.25H28.75V33.75H36.25V36.25ZM36.25 31.25H28.75V28.75H36.25V31.25ZM36.25 26.25H28.75V23.75H36.25V26.25Z" fill="white"/>
</svg>
