<svg width="30" height="30" viewBox="0 0 30 30" fill="none" xmlns="http://www.w3.org/2000/svg">
<circle cx="15" cy="15" r="15" fill="white"/>
<g clip-path="url(#clip0_161_4935)">
<path d="M23 15C23 10.5817 19.4183 7 15 7C10.5817 7 7 10.5817 7 15C7 18.993 9.9255 22.3027 13.75 22.9028V17.3125H11.7188V15H13.75V13.2375C13.75 11.2325 14.9444 10.125 16.7718 10.125C17.647 10.125 18.5625 10.2812 18.5625 10.2812V12.25H17.5538C16.5599 12.25 16.25 12.8667 16.25 13.4994V15H18.4688L18.1141 17.3125H16.25V22.9028C20.0745 22.3027 23 18.9931 23 15Z" fill="#1877F2"/>
<path d="M18.1141 17.3125L18.4688 15H16.25V13.4994C16.25 12.8666 16.5599 12.25 17.5538 12.25H18.5625V10.2812C18.5625 10.2812 17.647 10.125 16.7717 10.125C14.9444 10.125 13.75 11.2325 13.75 13.2375V15H11.7188V17.3125H13.75V22.9028C14.1635 22.9676 14.5814 23.0001 15 23C15.4186 23.0001 15.8365 22.9676 16.25 22.9028V17.3125H18.1141Z" fill="white"/>
</g>
<defs>
<clipPath id="clip0_161_4935">
<rect width="16" height="16" fill="white" transform="translate(7 7)"/>
</clipPath>
</defs>
</svg>
