<svg width="60" height="60" viewBox="0 0 60 60" fill="none" xmlns="http://www.w3.org/2000/svg">
<rect width="60" height="60" rx="24" fill="#673EE5"/>
<path d="M24.3375 22.5C24.197 22.5002 24.0583 22.532 23.9317 22.593C23.8052 22.654 23.6939 22.7427 23.6062 22.8525L17.8875 30H26.25C26.4986 30 26.7371 30.0988 26.9129 30.2746C27.0887 30.4504 27.1875 30.6889 27.1875 30.9375C27.1875 31.6834 27.4838 32.3988 28.0113 32.9262C28.5387 33.4537 29.2541 33.75 30 33.75C30.7459 33.75 31.4613 33.4537 31.9887 32.9262C32.5162 32.3988 32.8125 31.6834 32.8125 30.9375C32.8125 30.6889 32.9113 30.4504 33.0871 30.2746C33.2629 30.0988 33.5014 30 33.75 30H42.1125L36.3937 22.8525C36.3061 22.7427 36.1948 22.654 36.0683 22.593C35.9417 22.532 35.803 22.5002 35.6625 22.5H24.3375ZM22.1437 21.6806C22.407 21.3516 22.7408 21.0859 23.1205 20.9031C23.5002 20.7204 23.9161 20.6254 24.3375 20.625H35.6625C36.0839 20.6254 36.4998 20.7204 36.8795 20.9031C37.2592 21.0859 37.593 21.3516 37.8562 21.6806L44.7937 30.3525C44.872 30.4502 44.9299 30.5626 44.9641 30.683C44.9982 30.8035 45.0079 30.9295 44.9925 31.0538L44.2612 36.9112C44.1762 37.5917 43.8455 38.2176 43.3314 38.6713C42.8173 39.125 42.1551 39.3753 41.4694 39.375H18.5306C17.8449 39.3753 17.1827 39.125 16.6686 38.6713C16.1545 38.2176 15.8238 37.5917 15.7387 36.9112L15.0075 31.0538C14.9921 30.9295 15.0018 30.8035 15.0359 30.683C15.0701 30.5626 15.128 30.4502 15.2062 30.3525L22.1437 21.6806Z" fill="white"/>
</svg>
