<svg width="30" height="30" viewBox="0 0 30 30" fill="none" xmlns="http://www.w3.org/2000/svg">
<circle cx="15" cy="15" r="15" fill="white"/>
<g clip-path="url(#clip0_161_4949)">
<path d="M10.8008 23V12.2048H7.21267V23H10.8008ZM9.00718 10.73C10.2584 10.73 11.0372 9.9011 11.0372 8.8652C11.0139 7.80594 10.2585 7 9.03093 7C7.80358 7 7.00098 7.80595 7.00098 8.8652C7.00098 9.90115 7.77962 10.73 8.98376 10.73H9.00707H9.00718ZM12.7868 23H16.3749V16.9715C16.3749 16.6488 16.3982 16.3265 16.4929 16.0959C16.7523 15.4512 17.3427 14.7836 18.3339 14.7836C19.6323 14.7836 20.1517 15.7736 20.1517 17.2248V22.9999H23.7396V16.8101C23.7396 13.4942 21.9694 11.9514 19.6086 11.9514C17.673 11.9514 16.8231 13.0333 16.351 13.7703H16.3749V12.2046H12.7868C12.8339 13.2176 12.7868 22.9998 12.7868 22.9998L12.7868 23Z" fill="#0076B2"/>
</g>
<defs>
<clipPath id="clip0_161_4949">
<rect width="16.74" height="16" fill="white" transform="translate(7 7)"/>
</clipPath>
</defs>
</svg>
