<svg width="194" height="244" viewBox="0 0 194 244" fill="none" xmlns="http://www.w3.org/2000/svg">
<path d="M178.542 229.443C161.984 238.25 142.828 243.594 121.464 243.594C58.8281 243.594 0.312501 197.432 0.09375 127.87H59.9531C59.9531 162.354 89.7448 187.734 121.464 187.734C132.307 187.734 142.49 184.745 151.943 179.708C164.047 173.26 179.052 176.646 187.292 187.62L187.661 188.104C197.922 201.771 193.63 221.417 178.542 229.443Z" fill="#6439E3"/>
<mask id="mask0_63_116" style="mask-type:luminance" maskUnits="userSpaceOnUse" x="0" y="0" width="193" height="118">
<path d="M0.0885315 0.291687H193V117.333H0.0885315V0.291687Z" fill="white"/>
</mask>
<g mask="url(#mask0_63_116)">
<path d="M186.87 57.0208C181.437 64.0052 173.208 67.8438 164.818 67.8438C160.609 67.8438 156.365 66.8802 152.417 64.8594C142.781 59.9271 132.453 57.0677 122.708 57.0677C88.5052 57.0677 59.9427 83.1354 59.9427 117.203H0.0937398C0.0885318 117.057 0.0885315 116.927 0.0885315 116.786C0.0885315 50.9948 53.3281 0.375 122.568 0.375C141.016 0.640625 160.323 5.92708 177.802 15.1667C193.187 23.2969 197.562 43.2969 186.87 57.0208Z" fill="#00BF63"/>
</g>
</svg>
