<svg width="462" height="146" viewBox="0 0 462 146" fill="none" xmlns="http://www.w3.org/2000/svg">
<mask id="mask0_69_184" style="mask-type:luminance" maskUnits="userSpaceOnUse" x="0" y="76" width="116" height="70">
<path d="M0.5625 76.3334H116V145.537H0.5625V76.3334Z" fill="white"/>
</mask>
<g mask="url(#mask0_69_184)">
<path d="M106.891 137.063C97.0208 142.313 85.6094 145.495 72.8802 145.495C35.5625 145.495 0.697928 117.99 0.567719 76.5469H36.2292C36.2292 97.0885 53.9844 112.214 72.8802 112.214C79.3386 112.214 85.4063 110.432 91.0417 107.432C98.2552 103.589 107.193 105.604 112.104 112.146L112.323 112.432C118.432 120.573 115.875 132.281 106.891 137.063Z" fill="#6439E3"/>
</g>
<mask id="mask1_69_184" style="mask-type:luminance" maskUnits="userSpaceOnUse" x="0" y="0" width="116" height="71">
<path d="M0.5625 0.536499H116V71H0.5625V0.536499Z" fill="white"/>
</mask>
<g mask="url(#mask1_69_184)">
<path d="M111.854 34.3334C108.615 38.4948 103.708 40.7813 98.7135 40.7813C96.2031 40.7813 93.6771 40.2084 91.3229 39C85.5833 36.0625 79.4271 34.3594 73.6198 34.3594C53.2396 34.3594 36.2292 49.8907 36.2292 70.1928H0.567708C0.5625 70.1042 0.5625 70.0261 0.5625 69.9428C0.5625 30.7396 32.2865 0.583374 73.5365 0.583374C84.5313 0.739625 96.0313 3.89067 106.448 9.39587C115.615 14.2396 118.219 26.1563 111.854 34.3334Z" fill="#00BF63"/>
</g>
<path d="M78.337 91.0481C75.1703 91.0481 72.3787 90.3919 69.962 89.069C67.5453 87.7513 65.6495 85.7721 64.2745 83.1315C62.9099 80.4804 62.2328 77.2148 62.2328 73.3398C62.2328 69.4648 62.9099 66.2096 64.2745 63.569C65.6495 60.9179 67.5453 58.9336 69.962 57.6106C72.3787 56.2929 75.1703 55.6315 78.337 55.6315C81.6391 55.6315 84.4464 56.2877 86.7537 57.5898C89.0714 58.8815 90.7328 60.8554 91.7328 63.5065L86.7537 66.5481L86.1703 66.5065C85.4307 64.7304 84.4307 63.4544 83.1703 62.6731C81.9047 61.8971 80.2953 61.5065 78.337 61.5065C75.4724 61.5065 73.2432 62.4544 71.6495 64.3398C70.0505 66.2304 69.2537 69.2304 69.2537 73.3398C69.2537 77.4388 70.0505 80.4336 71.6495 82.319C73.2432 84.2096 75.4724 85.1523 78.337 85.1523C82.8057 85.1523 85.5453 82.9804 86.5453 78.6315H87.1287L92.1495 81.2565C91.2016 84.5221 89.5922 86.9752 87.3162 88.6106C85.0505 90.2356 82.0557 91.0481 78.337 91.0481Z" fill="#00BF63"/>
<path d="M103.401 91.0482C101.734 91.0482 100.286 90.7409 99.0677 90.1315C97.8438 89.5221 96.9011 88.6263 96.2344 87.444C95.5782 86.2513 95.2552 84.819 95.2552 83.1523C95.2552 81.6107 95.5782 80.319 96.2344 79.2773C96.9011 78.2357 97.9219 77.3815 99.2969 76.7148C100.682 76.0482 102.49 75.5378 104.714 75.1732C106.266 74.9232 107.448 74.6523 108.255 74.3607C109.057 74.0586 109.599 73.7148 109.88 73.3398C110.172 72.9648 110.318 72.4857 110.318 71.9023C110.318 71.069 110.026 70.4388 109.443 70.0065C108.859 69.5638 107.891 69.3398 106.547 69.3398C105.099 69.3398 103.724 69.668 102.422 70.319C101.13 70.9596 100.005 71.7982 99.0469 72.8398H98.5677L95.8386 68.7357C97.1563 67.2773 98.7605 66.1419 100.651 65.319C102.552 64.5013 104.63 64.0898 106.88 64.0898C110.323 64.0898 112.807 64.819 114.339 66.2773C115.88 67.7357 116.651 69.8086 116.651 72.4857V83.7773C116.651 84.9336 117.156 85.5065 118.172 85.5065C118.573 85.5065 118.964 85.4388 119.339 85.2982L119.672 85.4023L120.13 89.944C119.766 90.1836 119.266 90.3763 118.63 90.5273C117.99 90.6628 117.281 90.7357 116.505 90.7357C114.948 90.7357 113.734 90.4388 112.859 89.8398C111.995 89.2461 111.38 88.3138 111.005 87.0482L110.505 86.9857C109.24 89.694 106.87 91.0482 103.401 91.0482ZM105.464 86.1732C106.974 86.1732 108.182 85.668 109.089 84.6523C109.99 83.6419 110.443 82.2305 110.443 80.4232V77.7982L109.984 77.694C109.594 78.0169 109.078 78.2773 108.443 78.4857C107.802 78.694 106.891 78.9023 105.714 79.1107C104.297 79.3503 103.276 79.7513 102.651 80.319C102.036 80.8919 101.734 81.7044 101.734 82.7565C101.734 83.8711 102.057 84.7148 102.714 85.2982C103.38 85.8815 104.297 86.1732 105.464 86.1732Z" fill="#00BF63"/>
<path d="M138.566 84.3606L140.253 89.1731C139.545 89.7565 138.654 90.2148 137.587 90.5481C136.529 90.8815 135.326 91.0481 133.983 91.0481C131.16 91.0481 129.024 90.2877 127.566 88.7565C126.108 87.2148 125.378 84.9856 125.378 82.069V69.7356H121.42V64.569H125.378V59.5065L131.899 58.444V64.569H139.274V69.7356H131.899V81.6106C131.899 82.8919 132.16 83.8294 132.691 84.4231C133.233 85.0065 134.009 85.2981 135.024 85.2981C136.191 85.2981 137.201 84.9856 138.066 84.3606H138.566Z" fill="#00BF63"/>
<path d="M155.966 91.0482C153.45 91.0482 151.226 90.5273 149.299 89.4857C147.367 88.4336 145.862 86.8971 144.779 84.8815C143.695 82.8555 143.154 80.418 143.154 77.569C143.154 74.7253 143.695 72.2878 144.779 70.2565C145.862 68.2305 147.351 66.694 149.258 65.6523C151.174 64.6107 153.367 64.0898 155.841 64.0898C161.31 64.0898 164.82 66.0794 166.362 70.0482L161.883 73.2565H161.404C160.862 72.0221 160.159 71.1107 159.299 70.5273C158.45 69.9336 157.299 69.6315 155.841 69.6315C153.95 69.6315 152.476 70.2878 151.424 71.5898C150.383 72.8815 149.862 74.8763 149.862 77.569C149.862 80.2513 150.393 82.2461 151.466 83.5482C152.534 84.8555 154.034 85.5065 155.966 85.5065C157.367 85.5065 158.555 85.1315 159.529 84.3815C160.513 83.6211 161.221 82.5221 161.654 81.0898L162.154 81.0482L166.779 83.5898C166.122 85.7878 164.904 87.5794 163.112 88.9648C161.331 90.3555 158.95 91.0482 155.966 91.0482Z" fill="#00BF63"/>
<path d="M171.331 90.5482V54.1523H177.852V67.9648L178.331 68.069C179.206 66.793 180.269 65.8138 181.519 65.1315C182.769 64.4388 184.279 64.0898 186.061 64.0898C191.779 64.0898 194.644 67.3398 194.644 73.8398V90.5482H188.123V74.6523C188.123 72.8919 187.769 71.6055 187.061 70.7982C186.363 69.9961 185.269 69.5898 183.769 69.5898C181.946 69.5898 180.503 70.2044 179.436 71.4232C178.378 72.6471 177.852 74.543 177.852 77.1107V90.5482H171.331Z" fill="#00BF63"/>
<path d="M214.47 76.7148H200.032V70.9648H214.47V76.7148Z" fill="#00BF63"/>
<path d="M226.686 91.0482C225.02 91.0482 223.572 90.7409 222.353 90.1315C221.129 89.5221 220.186 88.6263 219.52 87.444C218.863 86.2513 218.54 84.819 218.54 83.1523C218.54 81.6107 218.863 80.319 219.52 79.2773C220.186 78.2357 221.207 77.3815 222.582 76.7148C223.967 76.0482 225.775 75.5378 227.999 75.1732C229.551 74.9232 230.733 74.6523 231.54 74.3607C232.342 74.0586 232.884 73.7148 233.165 73.3398C233.457 72.9648 233.603 72.4857 233.603 71.9023C233.603 71.069 233.311 70.4388 232.728 70.0065C232.145 69.5638 231.176 69.3398 229.832 69.3398C228.384 69.3398 227.009 69.668 225.707 70.319C224.415 70.9596 223.29 71.7982 222.332 72.8398H221.853L219.124 68.7357C220.441 67.2773 222.046 66.1419 223.936 65.319C225.837 64.5013 227.915 64.0898 230.165 64.0898C233.608 64.0898 236.092 64.819 237.624 66.2773C239.165 67.7357 239.936 69.8086 239.936 72.4857V83.7773C239.936 84.9336 240.441 85.5065 241.457 85.5065C241.858 85.5065 242.249 85.4388 242.624 85.2982L242.957 85.4023L243.415 89.944C243.051 90.1836 242.551 90.3763 241.915 90.5273C241.275 90.6628 240.566 90.7357 239.79 90.7357C238.233 90.7357 237.02 90.4388 236.145 89.8398C235.28 89.2461 234.665 88.3138 234.29 87.0482L233.79 86.9857C232.525 89.694 230.155 91.0482 226.686 91.0482ZM228.749 86.1732C230.259 86.1732 231.467 85.668 232.374 84.6523C233.275 83.6419 233.728 82.2305 233.728 80.4232V77.7982L233.27 77.694C232.879 78.0169 232.363 78.2773 231.728 78.4857C231.087 78.694 230.176 78.9023 228.999 79.1107C227.582 79.3503 226.561 79.7513 225.936 80.319C225.322 80.8919 225.02 81.7044 225.02 82.7565C225.02 83.8711 225.342 84.7148 225.999 85.2982C226.665 85.8815 227.582 86.1732 228.749 86.1732Z" fill="#00BF63"/>
<path d="M254.705 91.0482C252.372 91.0482 250.585 90.418 249.351 89.1523C248.127 87.8919 247.518 85.9753 247.518 83.4023V54.1523H254.039V83.1315C254.039 84.7148 254.695 85.5065 256.018 85.5065C256.393 85.5065 256.789 85.444 257.205 85.319L257.539 85.4232L258.122 90.4232C257.757 90.6159 257.278 90.7669 256.684 90.8815C256.085 90.9909 255.424 91.0482 254.705 91.0482Z" fill="#00BF63"/>
<path d="M269.628 91.0482C267.294 91.0482 265.508 90.418 264.273 89.1523C263.049 87.8919 262.44 85.9753 262.44 83.4023V54.1523H268.961V83.1315C268.961 84.7148 269.617 85.5065 270.94 85.5065C271.315 85.5065 271.711 85.444 272.128 85.319L272.461 85.4232L273.044 90.4232C272.68 90.6159 272.2 90.7669 271.607 90.8815C271.008 90.9909 270.346 91.0482 269.628 91.0482Z" fill="#00BF63"/>
<path d="M305.608 90.5481H297.399L285.754 56.1315H292.983L301.337 81.7981H301.941L310.17 56.1315H317.212L305.608 90.5481Z" fill="#6439E3"/>
<path d="M343.485 79.0273H326.777C326.969 81.293 327.615 82.9388 328.714 83.9648C329.808 84.9961 331.308 85.5065 333.214 85.5065C334.699 85.5065 335.907 85.2305 336.839 84.6732C337.766 84.1211 338.511 83.2773 339.068 82.1523H339.568L343.902 84.9232C343.053 86.7461 341.777 88.2253 340.068 89.3607C338.36 90.4857 336.074 91.0482 333.214 91.0482C330.532 91.0482 328.214 90.543 326.256 89.5273C324.298 88.5013 322.787 86.9805 321.735 84.9648C320.678 82.9388 320.152 80.4753 320.152 77.569C320.152 74.6263 320.704 72.1471 321.818 70.1315C322.928 68.1055 324.433 66.5898 326.339 65.5898C328.24 64.5898 330.37 64.0898 332.735 64.0898C336.412 64.0898 339.225 65.0638 341.173 67.0065C343.131 68.9544 344.11 71.8086 344.11 75.569C344.11 76.944 344.058 78.0065 343.964 78.7565L343.485 79.0273ZM337.881 74.819C337.808 72.8503 337.344 71.4128 336.485 70.5065C335.636 69.6055 334.386 69.1523 332.735 69.1523C329.443 69.1523 327.506 71.043 326.923 74.819H337.881Z" fill="#6439E3"/>
<path d="M349.789 90.5482V64.5898H356.122V68.444L356.601 68.5482C357.237 67.1055 358.065 66.043 359.081 65.3607C360.091 64.6836 361.331 64.3398 362.789 64.3398C364.273 64.3398 365.398 64.6003 366.164 65.1107L365.06 70.7357L364.56 70.819C364.143 70.6523 363.732 70.5273 363.331 70.444C362.94 70.3607 362.466 70.319 361.914 70.319C360.081 70.319 358.685 70.9648 357.726 72.2565C356.778 73.5378 356.31 75.5846 356.31 78.4023V90.5482H349.789Z" fill="#6439E3"/>
<path d="M373.398 61.4856C372.216 61.4856 371.257 61.1315 370.523 60.4231C369.784 59.7044 369.419 58.7721 369.419 57.6315C369.419 56.5221 369.784 55.6106 370.523 54.9023C371.257 54.1836 372.216 53.819 373.398 53.819C374.174 53.819 374.867 53.9856 375.481 54.319C376.091 54.6523 376.565 55.1054 376.898 55.6731C377.242 56.2461 377.419 56.8971 377.419 57.6315C377.419 58.3815 377.242 59.0481 376.898 59.6315C376.565 60.2044 376.091 60.6523 375.481 60.9856C374.867 61.319 374.174 61.4856 373.398 61.4856ZM370.148 90.5481V64.5898H376.669V90.5481H370.148Z" fill="#6439E3"/>
<path d="M384.921 90.5482V69.7357H381.254V64.569H384.921C384.655 63.4753 384.525 62.444 384.525 61.4857C384.525 59.8346 384.9 58.4232 385.65 57.2565C386.4 56.0898 387.483 55.2044 388.9 54.5898C390.316 53.9648 391.993 53.6523 393.941 53.6523C396.816 53.6523 398.952 54.1523 400.358 55.1523L398.837 59.944L398.337 60.0482C397.363 59.3555 396.113 59.0065 394.587 59.0065C393.421 59.0065 392.535 59.293 391.941 59.8607C391.358 60.4336 391.066 61.2148 391.066 62.2148C391.066 62.6315 391.092 63.0221 391.15 63.3815C391.202 63.7305 391.301 64.1263 391.441 64.569H398.858V69.7357H391.441V90.5482H384.921Z" fill="#6439E3"/>
<path d="M406.114 61.4856C404.932 61.4856 403.973 61.1315 403.239 60.4231C402.5 59.7044 402.135 58.7721 402.135 57.6315C402.135 56.5221 402.5 55.6106 403.239 54.9023C403.973 54.1836 404.932 53.819 406.114 53.819C406.89 53.819 407.583 53.9856 408.197 54.319C408.807 54.6523 409.281 55.1054 409.614 55.6731C409.958 56.2461 410.135 56.8971 410.135 57.6315C410.135 58.3815 409.958 59.0481 409.614 59.6315C409.281 60.2044 408.807 60.6523 408.197 60.9856C407.583 61.319 406.89 61.4856 406.114 61.4856ZM402.864 90.5481V64.5898H409.385V90.5481H402.864Z" fill="#6439E3"/>
<path d="M438.762 79.0273H422.053C422.246 81.293 422.892 82.9388 423.991 83.9648C425.084 84.9961 426.584 85.5065 428.491 85.5065C429.975 85.5065 431.183 85.2305 432.116 84.6732C433.043 84.1211 433.788 83.2773 434.345 82.1523H434.845L439.178 84.9232C438.329 86.7461 437.053 88.2253 435.345 89.3607C433.637 90.4857 431.35 91.0482 428.491 91.0482C425.808 91.0482 423.491 90.543 421.532 89.5273C419.574 88.5013 418.064 86.9805 417.012 84.9648C415.954 82.9388 415.428 80.4753 415.428 77.569C415.428 74.6263 415.98 72.1471 417.095 70.1315C418.204 68.1055 419.709 66.5898 421.616 65.5898C423.517 64.5898 425.647 64.0898 428.012 64.0898C431.689 64.0898 434.501 65.0638 436.449 67.0065C438.407 68.9544 439.387 71.8086 439.387 75.569C439.387 76.944 439.334 78.0065 439.241 78.7565L438.762 79.0273ZM433.157 74.819C433.084 72.8503 432.621 71.4128 431.762 70.5065C430.913 69.6055 429.663 69.1523 428.012 69.1523C424.72 69.1523 422.782 71.043 422.199 74.819H433.157Z" fill="#6439E3"/>
<path d="M445.065 90.5482V64.5898H451.399V68.444L451.878 68.5482C452.513 67.1055 453.341 66.043 454.357 65.3607C455.367 64.6836 456.607 64.3398 458.065 64.3398C459.55 64.3398 460.675 64.6003 461.44 65.1107L460.336 70.7357L459.836 70.819C459.42 70.6523 459.008 70.5273 458.607 70.444C458.216 70.3607 457.742 70.319 457.19 70.319C455.357 70.319 453.961 70.9648 453.003 72.2565C452.055 73.5378 451.586 75.5846 451.586 78.4023V90.5482H445.065Z" fill="#6439E3"/>
</svg>
