<svg width="340" height="144" viewBox="0 0 340 144" fill="none" xmlns="http://www.w3.org/2000/svg">
<path d="M0.891716 134.686C0.761706 137.629 3.0418 140.12 5.98445 140.25C8.9271 140.38 11.418 138.1 11.548 135.157C11.678 132.214 9.3979 129.724 6.45525 129.594C3.51261 129.464 1.02173 131.744 0.891716 134.686ZM25.684 90.4394L26.2462 91.2664L25.684 90.4394ZM90.1742 113.205L89.2615 112.797L90.1742 113.205ZM52.3703 131.452L52.5116 130.462L52.3703 131.452ZM73.7986 76.4623L73.3626 75.5623L73.7986 76.4623ZM146.441 95.7745L145.583 95.2609L146.441 95.7745ZM110.083 103.915L110.635 103.081L110.083 103.915ZM211.475 38.05L207.455 27.2254L200.091 36.1191L211.475 38.05ZM7.16361 131.786L7.1787 130.786L5.17893 130.756L5.16384 131.756L7.16361 131.786ZM5.58661 125.338L5.47262 126.332L7.45959 126.56L7.57357 125.566L5.58661 125.338ZM8.5825 119.414L8.79284 118.436L6.83758 118.015L6.62724 118.993L8.5825 119.414ZM8.31196 112.776L7.99789 113.726L9.8967 114.354L10.2108 113.405L8.31196 112.776ZM12.5085 107.637L12.9358 106.733L11.1275 105.879L10.7002 106.783L12.5085 107.637ZM13.8528 101.138L13.3048 101.975L14.9779 103.071L15.5258 102.234L13.8528 101.138ZM19.2878 97.3398L19.9567 96.5965L18.47 95.2586L17.8011 96.0019L19.2878 97.3398ZM22.5081 91.5465L21.7288 92.1732L22.9823 93.7317L23.7615 93.105L22.5081 91.5465ZM28.6445 89.8421L29.5323 89.3819L28.612 87.6062L27.7241 88.0664L28.6445 89.8421ZM33.3018 85.8409L32.3438 86.1276L32.9171 88.0437L33.8751 87.757L33.3018 85.8409ZM39.4283 86.5276L40.4169 86.3767L40.1151 84.3996L39.1266 84.5505L39.4283 86.5276ZM45.0382 83.9882L44.0391 84.0301L44.1229 86.0283L45.122 85.9864L45.0382 83.9882ZM50.8592 86.0165L51.858 86.0667L51.9584 84.0693L50.9596 84.0191L50.8592 86.0165ZM56.8475 84.5632L55.8563 84.4305L55.5909 86.4128L56.5821 86.5455L56.8475 84.5632ZM62.2471 87.5355L63.2245 87.7468L63.6471 85.7919L62.6697 85.5806L62.2471 87.5355ZM68.3936 87.0644L67.4369 86.7733L66.8547 88.6867L67.8114 88.9778L68.3936 87.0644ZM73.2204 90.8926L74.1463 91.2705L74.902 89.4188L73.9761 89.0409L73.2204 90.8926ZM79.3462 91.5785L78.4686 91.0991L77.5098 92.8543L78.3874 93.3337L79.3462 91.5785ZM83.1516 96.397L83.9463 97.0041L85.1604 95.4147L84.3657 94.8077L83.1516 96.397ZM88.7576 98.985L88.1254 98.2102L86.5758 99.4745L87.2079 100.249L88.7576 98.985ZM89.8417 104.973L90.1376 105.928L92.048 105.336L91.7521 104.381L89.8417 104.973ZM92.0615 110.627L92.2626 109.647L90.3035 109.245L90.1024 110.225L92.0615 110.627ZM88.0331 115.232L87.5416 116.102L89.2835 117.085L89.7749 116.214L88.0331 115.232ZM86.4504 120.993L87.0963 120.23L85.5694 118.938L84.9235 119.701L86.4504 120.993ZM81.0324 123.513L80.2565 124.144L81.5183 125.696L82.2942 125.065L81.0324 123.513ZM77.4762 128.313L78.3511 127.829L77.3828 126.079L76.5078 126.563L77.4762 128.313ZM71.5173 128.802L70.5746 129.135L71.2419 131.021L72.1846 130.687L71.5173 128.802ZM66.5958 132.191L67.5782 132.005L67.2048 130.04L66.2224 130.226L66.5958 132.191ZM60.7637 130.867L59.7649 130.914L59.8603 132.912L60.8591 132.864L60.7637 130.867ZM55.0934 132.763L56.0901 132.844L56.2523 130.851L55.2556 130.77L55.0934 132.763ZM49.6011 129.834L48.6434 129.546L48.0676 131.462L49.0253 131.75L49.6011 129.834ZM43.2655 128.475L43.9719 129.182L45.3874 127.77L44.681 127.062L43.2655 128.475ZM42.175 122.147L41.9891 121.165L40.024 121.536L40.2098 122.519L42.175 122.147ZM40.2811 115.988L40.11 116.973L42.0805 117.315L42.2516 116.33L40.2811 115.988ZM43.9074 110.558L44.2686 109.626L42.4035 108.903L42.0424 109.836L43.9074 110.558ZM44.7307 104.088L44.2528 104.967L46.0096 105.922L46.4875 105.044L44.7307 104.088ZM49.6724 99.8344L50.2334 99.0066L48.5779 97.8845L48.0168 98.7123L49.6724 99.8344ZM51.7656 93.6566L51.1375 94.4348L52.694 95.6909L53.322 94.9127L51.7656 93.6566ZM57.3584 90.296L58.0457 89.5696L56.593 88.195L55.9057 88.9214L57.3584 90.296ZM60.4095 84.5299L59.6653 85.1979L61.0012 86.6863L61.7454 86.0184L60.4095 84.5299ZM66.4796 82.1392L67.2824 81.5429L66.0899 79.9373L65.2871 80.5336L66.4796 82.1392ZM70.5634 77.0492L69.6973 77.549L70.6969 79.2813L71.563 78.7815L70.5634 77.0492ZM77.021 76.1604L77.9547 75.8024L77.2386 73.935L76.3049 74.2931L77.021 76.1604ZM82.4001 72.4217L81.428 72.6563L81.8971 74.6005L82.8692 74.3659L82.4001 72.4217ZM88.9198 73.2229L89.9099 73.0825L89.6292 71.1023L88.6391 71.2427L88.9198 73.2229ZM94.9394 70.6028L93.9414 70.6667L94.0692 72.6626L95.0671 72.5987L94.9394 70.6028ZM101.254 72.4118L102.254 72.414L102.258 70.414L101.258 70.4118L101.254 72.4118ZM107.569 70.6191L106.571 70.5562L106.445 72.5523L107.443 72.6152L107.569 70.6191ZM113.612 73.1885L114.605 73.3107L114.849 71.3257L113.857 71.2035L113.612 73.1885ZM120.102 72.1686L119.119 71.9847L118.751 73.9505L119.734 74.1345L120.102 72.1686ZM125.771 75.481L126.738 75.7341L127.244 73.7992L126.277 73.5461L125.771 75.481ZM132.339 75.4078L131.398 75.0706L130.723 76.9534L131.664 77.2906L132.339 75.4078ZM137.294 79.6805L138.186 80.1313L139.088 78.3461L138.195 77.8952L137.294 79.6805ZM143.67 81.3394L142.89 80.7136L141.639 82.2736L142.419 82.8994L143.67 81.3394ZM146.175 87.2778L146.62 88.1731L148.411 87.2826L147.966 86.3872L146.175 87.2778ZM148.659 93.1561L148.919 92.1905L146.988 91.6703L146.728 92.6359L148.659 93.1561ZM143.671 98.0257L143.051 98.8097L144.619 100.051L145.239 99.2672L143.671 98.0257ZM140.065 104.311L140.865 103.711L139.665 102.111L138.865 102.711L140.065 104.311ZM133.02 105.98L132.089 106.345L132.818 108.207L133.749 107.843L133.02 105.98ZM126.686 109.489L127.683 109.407L127.518 107.414L126.522 107.496L126.686 109.489ZM119.863 107.06L118.885 106.851L118.467 108.807L119.445 109.016L119.863 107.06ZM112.645 106.571L113.536 107.026L114.446 105.245L113.555 104.79L112.645 106.571ZM108.648 101.324L107.983 100.577L106.49 101.907L107.155 102.654L108.648 101.324ZM103.878 97.5221L104.306 98.4258L106.113 97.5697L105.685 96.6659L103.878 97.5221ZM103.69 91.3489L103.406 90.3902L101.488 90.9591L101.773 91.9178L103.69 91.3489ZM100.393 86.1405L100.578 87.1233L102.543 86.754L102.359 85.7712L100.393 86.1405ZM101.526 80.0551L101.419 79.0607L99.4305 79.2735L99.5369 80.2678L101.526 80.0551ZM99.1083 74.3623L99.148 75.3615L101.146 75.282L101.107 74.2828L99.1083 74.3623ZM101.054 68.4949L101.075 67.4951L99.075 67.4536L99.0542 68.4534L101.054 68.4949ZM99.3478 62.5588L99.2694 63.5557L101.263 63.7127L101.342 62.7158L99.3478 62.5588ZM101.961 56.9658L102.097 55.975L100.115 55.7035L99.9796 56.6942L101.961 56.9658ZM100.953 50.8744L100.759 51.8553L102.72 52.2444L102.915 51.2635L100.953 50.8744ZM104.216 45.6343L104.473 44.6677L102.54 44.1548L102.283 45.1214L104.216 45.6343ZM103.993 39.4633L103.67 40.4097L105.563 41.0556L105.886 40.1092L103.993 39.4633ZM107.954 34.7288L108.35 33.8104L106.513 33.0193L106.117 33.9378L107.954 34.7288ZM108.697 28.5971L108.222 29.4769L109.981 30.4275L110.456 29.5477L108.697 28.5971ZM113.433 24.6397L113.996 23.813L112.342 22.6877L111.78 23.5144L113.433 24.6397ZM115.412 18.7901L114.755 19.5446L116.264 20.8573L116.92 20.1028L115.412 18.7901ZM120.939 16.0589L121.691 15.4L120.374 13.8955L119.621 14.5544L120.939 16.0589ZM124.402 10.958L123.559 11.4965L124.636 13.1818L125.478 12.6434L124.402 10.958ZM130.481 9.98053L131.399 9.58298L130.604 7.74782L129.686 8.14537L130.481 9.98053ZM135.35 6.21291L134.381 6.46008L134.875 8.39802L135.844 8.15086L135.35 6.21291ZM141.434 7.16723L142.429 7.06635L142.227 5.07656L141.232 5.17743L141.434 7.16723ZM147.187 4.9777L146.187 4.94672L146.125 6.94576L147.125 6.97674L147.187 4.9777ZM152.826 7.48736L153.815 7.63137L154.103 5.65221L153.114 5.50821L152.826 7.48736ZM158.971 6.65922L157.999 6.4207L157.522 8.36298L158.494 8.6015L158.971 6.65922ZM164.02 10.2037L164.969 10.5194L165.6 8.62171L164.651 8.306L164.02 10.2037ZM170.129 10.3409L169.204 9.96225L168.446 11.8134L169.372 12.192L170.129 10.3409ZM174.69 14.5545L175.592 14.9861L176.455 13.182L175.553 12.7504L174.69 14.5545ZM180.797 15.424L179.917 14.9485L178.966 16.708L179.846 17.1835L180.797 15.424ZM184.847 20.0287L185.706 20.541L186.731 18.8233L185.872 18.311L184.847 20.0287ZM190.929 21.4609L190.09 20.9166L189.001 22.5945L189.84 23.1387L190.929 21.4609ZM194.582 26.3268L195.403 26.8977L196.545 25.2558L195.724 24.6848L194.582 26.3268ZM200.562 28.1579L199.758 27.5631L198.568 29.1708L199.372 29.7656L200.562 28.1579ZM203.934 33.2341L204.723 33.8493L205.953 32.2724L205.165 31.6573L203.934 33.2341ZM209.771 35.3405L208.997 34.707L207.73 36.2546L208.504 36.8881L209.771 35.3405ZM6.21985 134.922C7.21714 134.848 7.21714 134.848 7.21715 134.848C7.21715 134.848 7.21715 134.848 7.21716 134.848C7.21716 134.848 7.21716 134.848 7.21717 134.848C7.21717 134.848 7.21717 134.848 7.21716 134.848C7.21715 134.848 7.21712 134.848 7.21706 134.847C7.21696 134.846 7.21677 134.843 7.21652 134.839C7.216 134.832 7.2152 134.82 7.21416 134.804C7.21207 134.771 7.20902 134.721 7.20541 134.654C7.19817 134.521 7.18866 134.32 7.18002 134.058C7.16272 133.533 7.1489 132.761 7.16361 131.786L5.16384 131.756C5.1486 132.765 5.16284 133.569 5.1811 134.123C5.19023 134.401 5.20037 134.615 5.20833 134.763C5.21232 134.836 5.21576 134.893 5.21826 134.932C5.21952 134.951 5.22053 134.966 5.22127 134.977C5.22163 134.982 5.22193 134.986 5.22215 134.99C5.22226 134.991 5.22235 134.992 5.22242 134.993C5.22245 134.994 5.22248 134.994 5.22251 134.994C5.22252 134.995 5.22253 134.995 5.22254 134.995C5.22254 134.995 5.22255 134.995 5.22255 134.995C5.22256 134.995 5.22256 134.995 6.21985 134.922ZM7.57357 125.566C7.78909 123.688 8.10991 121.61 8.5825 119.414L6.62724 118.993C6.13938 121.261 5.80864 123.403 5.58661 125.338L7.57357 125.566ZM10.2108 113.405C10.8415 111.498 11.5992 109.561 12.5085 107.637L10.7002 106.783C9.75295 108.787 8.96575 110.8 8.31196 112.776L10.2108 113.405ZM15.5258 102.234C16.6303 100.548 17.8781 98.9062 19.2878 97.3398L17.8011 96.0019C16.319 97.6488 15.0095 99.3725 13.8528 101.138L15.5258 102.234ZM23.7615 93.105C24.5516 92.4695 25.3792 91.8557 26.2462 91.2664L25.1219 89.6123C24.2102 90.232 23.3395 90.8778 22.5081 91.5465L23.7615 93.105ZM26.2462 91.2664C27.0013 90.7532 27.8021 90.2787 28.6445 89.8421L27.7241 88.0664C26.816 88.5371 25.9466 89.0518 25.1219 89.6123L26.2462 91.2664ZM33.8751 87.757C35.6338 87.2308 37.494 86.8228 39.4283 86.5276L39.1266 84.5505C37.1105 84.8582 35.1588 85.2853 33.3018 85.8409L33.8751 87.757ZM45.122 85.9864C47.0047 85.9075 48.9245 85.9193 50.8592 86.0165L50.9596 84.0191C48.9671 83.9189 46.9857 83.9065 45.0382 83.9882L45.122 85.9864ZM56.5821 86.5455C58.4858 86.8004 60.3812 87.1321 62.2471 87.5355L62.6697 85.5806C60.752 85.1661 58.8042 84.8251 56.8475 84.5632L56.5821 86.5455ZM67.8114 88.9778C69.68 89.5463 71.491 90.1868 73.2204 90.8926L73.9761 89.0409C72.1868 88.3106 70.3177 87.6498 68.3936 87.0644L67.8114 88.9778ZM78.3874 93.3337C80.1298 94.2854 81.7288 95.3102 83.1516 96.397L84.3657 94.8077C82.8517 93.6511 81.1654 92.5722 79.3462 91.5785L78.3874 93.3337ZM87.2079 100.249C88.4462 101.767 89.3382 103.348 89.8417 104.973L91.7521 104.381C91.1592 102.468 90.1268 100.663 88.7576 98.985L87.2079 100.249ZM90.1024 110.225C89.9303 111.063 89.6537 111.921 89.2615 112.797L91.0868 113.614C91.5351 112.613 91.8584 111.617 92.0615 110.627L90.1024 110.225ZM89.2615 112.797C88.8865 113.634 88.4764 114.446 88.0331 115.232L89.7749 116.214C90.2487 115.375 90.6866 114.508 91.0868 113.614L89.2615 112.797ZM84.9235 119.701C83.7482 121.09 82.4463 122.363 81.0324 123.513L82.2942 125.065C83.8027 123.838 85.1937 122.478 86.4504 120.993L84.9235 119.701ZM76.5078 126.563C74.9325 127.435 73.2645 128.183 71.5173 128.802L72.1846 130.687C74.0331 130.033 75.8019 129.239 77.4762 128.313L76.5078 126.563ZM66.2224 130.226C64.4569 130.562 62.6336 130.777 60.7637 130.867L60.8591 132.864C62.8202 132.771 64.7364 132.545 66.5958 132.191L66.2224 130.226ZM55.2556 130.77C54.3483 130.696 53.4332 130.593 52.5116 130.462L52.229 132.442C53.1902 132.579 54.1454 132.686 55.0934 132.763L55.2556 130.77ZM52.5116 130.462C51.4484 130.31 50.4801 130.099 49.6011 129.834L49.0253 131.75C50.0101 132.046 51.0773 132.277 52.229 132.442L52.5116 130.462ZM44.681 127.062C43.3565 125.735 42.5404 124.079 42.175 122.147L40.2098 122.519C40.6404 124.795 41.6237 126.83 43.2655 128.475L44.681 127.062ZM42.2516 116.33C42.5687 114.503 43.1301 112.565 43.9074 110.558L42.0424 109.836C41.2269 111.941 40.6248 114.008 40.2811 115.988L42.2516 116.33ZM46.4875 105.044C47.4303 103.311 48.4987 101.566 49.6724 99.8344L48.0168 98.7123C46.8096 100.493 45.7069 102.294 44.7307 104.088L46.4875 105.044ZM53.322 94.9127C54.5991 93.3301 55.9505 91.784 57.3584 90.296L55.9057 88.9214C54.4617 90.4475 53.0757 92.0332 51.7656 93.6566L53.322 94.9127ZM61.7454 86.0184C63.2907 84.6315 64.8752 83.3307 66.4796 82.1392L65.2871 80.5336C63.6299 81.7644 61.9976 83.1047 60.4095 84.5299L61.7454 86.0184ZM71.563 78.7815C72.4558 78.2663 73.3474 77.792 74.2346 77.3622L73.3626 75.5623C72.4293 76.0145 71.4951 76.5116 70.5634 77.0492L71.563 78.7815ZM74.2346 77.3622C75.1208 76.9329 76.0511 76.5324 77.021 76.1604L76.3049 74.2931C75.2862 74.6837 74.3037 75.1064 73.3626 75.5623L74.2346 77.3622ZM82.8692 74.3659C84.8024 73.8995 86.8277 73.5195 88.9198 73.2229L88.6391 71.2427C86.4901 71.5474 84.4016 71.9388 82.4001 72.4217L82.8692 74.3659ZM95.0671 72.5987C97.1017 72.4685 99.1708 72.4071 101.254 72.4118L101.258 70.4118C99.1332 70.4071 97.02 70.4696 94.9394 70.6028L95.0671 72.5987ZM107.443 72.6152C109.513 72.7457 111.576 72.9378 113.612 73.1885L113.857 71.2035C111.781 70.948 109.679 70.7521 107.569 70.6191L107.443 72.6152ZM119.734 74.1345C121.809 74.5229 123.829 74.973 125.771 75.481L126.277 73.5461C124.287 73.0255 122.22 72.5652 120.102 72.1686L119.734 74.1345ZM131.664 77.2906C133.698 78.0191 135.586 78.8181 137.294 79.6805L138.195 77.8952C136.403 76.9903 134.438 76.1597 132.339 75.4078L131.664 77.2906ZM142.419 82.8994C144.154 84.2917 145.421 85.7609 146.175 87.2778L147.966 86.3872C147.047 84.539 145.56 82.8552 143.67 81.3394L142.419 82.8994ZM146.728 92.6359C146.502 93.4752 146.128 94.3507 145.583 95.2609L147.299 96.2882C147.927 95.2392 148.379 94.1943 148.659 93.1561L146.728 92.6359ZM145.583 95.2609C145.01 96.2184 144.37 97.1429 143.671 98.0257L145.239 99.2672C145.992 98.317 146.681 97.321 147.299 96.2882L145.583 95.2609ZM138.865 102.711C137.08 104.05 135.116 105.161 133.02 105.98L133.749 107.843C136.02 106.954 138.142 105.754 140.065 104.311L138.865 102.711ZM126.522 107.496C124.368 107.674 122.137 107.546 119.863 107.06L119.445 109.016C121.912 109.543 124.34 109.683 126.686 109.489L126.522 107.496ZM113.555 104.79C112.584 104.294 111.609 103.725 110.635 103.081L109.532 104.749C110.566 105.433 111.605 106.04 112.645 106.571L113.555 104.79ZM110.635 103.081C109.953 102.629 109.289 102.043 108.648 101.324L107.155 102.654C107.892 103.481 108.684 104.188 109.532 104.749L110.635 103.081ZM105.685 96.6659C104.94 95.0935 104.272 93.3105 103.69 91.3489L101.773 91.9178C102.379 93.9603 103.082 95.8417 103.878 97.5221L105.685 96.6659ZM102.359 85.7712C102.017 83.9521 101.738 82.0404 101.526 80.0551L99.5369 80.2678C99.7546 82.302 100.041 84.2661 100.393 86.1405L102.359 85.7712ZM101.107 74.2828C101.032 72.3926 101.013 70.4587 101.054 68.4949L99.0542 68.4534C99.0126 70.4569 99.0315 72.4311 99.1083 74.3623L101.107 74.2828ZM101.342 62.7158C101.492 60.8093 101.697 58.8887 101.961 56.9658L99.9796 56.6942C99.7107 58.6558 99.5009 60.6147 99.3478 62.5588L101.342 62.7158ZM102.915 51.2635C103.29 49.3736 103.723 47.4934 104.216 45.6343L102.283 45.1214C101.779 47.023 101.336 48.9446 100.953 50.8744L102.915 51.2635ZM105.886 40.1092C106.511 38.2779 107.2 36.4806 107.954 34.7288L106.117 33.9378C105.341 35.7397 104.634 37.5856 103.993 39.4633L105.886 40.1092ZM110.456 29.5477C111.376 27.8454 112.368 26.2052 113.433 24.6397L111.78 23.5144C110.673 25.1398 109.647 26.8387 108.697 28.5971L110.456 29.5477ZM116.92 20.1028C118.178 18.6567 119.517 17.3043 120.939 16.0589L119.621 14.5544C118.128 15.8627 116.725 17.2798 115.412 18.7901L116.92 20.1028ZM125.478 12.6434C127.06 11.633 128.726 10.7409 130.481 9.98053L129.686 8.14537C127.831 8.94917 126.07 9.89176 124.402 10.958L125.478 12.6434ZM135.844 8.15086C137.627 7.69618 139.489 7.36445 141.434 7.16723L141.232 5.17743C139.19 5.38447 137.23 5.73325 135.35 6.21291L135.844 8.15086ZM147.125 6.97674C148.959 7.03359 150.859 7.20112 152.826 7.48736L153.114 5.50821C151.075 5.21155 149.1 5.03699 147.187 4.9777L147.125 6.97674ZM158.494 8.6015C160.285 9.04151 162.127 9.57391 164.02 10.2037L164.651 8.306C162.71 7.66012 160.817 7.11263 158.971 6.65922L158.494 8.6015ZM169.372 12.192C171.105 12.9009 172.877 13.6874 174.69 14.5545L175.553 12.7504C173.707 11.8673 171.9 11.0651 170.129 10.3409L169.372 12.192ZM179.846 17.1835C181.482 18.0682 183.149 19.0159 184.847 20.0287L185.872 18.311C184.151 17.2844 182.459 16.3228 180.797 15.424L179.846 17.1835ZM189.84 23.1387C191.396 24.1484 192.977 25.2106 194.582 26.3268L195.724 24.6848C194.102 23.5568 192.503 22.4826 190.929 21.4609L189.84 23.1387ZM199.372 29.7656C200.872 30.8759 202.393 32.0317 203.934 33.2341L205.165 31.6573C203.61 30.4447 202.076 29.2786 200.562 28.1579L199.372 29.7656Z" fill="#A3F662"/>
<rect x="213" y="16" width="127" height="38" rx="8" fill="#A3F762"/>
<path d="M230.312 41V29.896H231.368L236.072 37.624H235.352L240.056 29.896H241.112V41H239.608V32.536L239.96 32.632L236.248 38.728H235.192L231.48 32.632L231.816 32.536V41H230.312ZM246.95 41.16C246.203 41.16 245.531 40.984 244.934 40.632C244.337 40.28 243.862 39.8053 243.51 39.208C243.158 38.6 242.982 37.9227 242.982 37.176C242.982 36.44 243.158 35.7787 243.51 35.192C243.862 34.5947 244.337 34.12 244.934 33.768C245.531 33.416 246.203 33.24 246.95 33.24C247.686 33.24 248.353 33.416 248.95 33.768C249.558 34.1093 250.038 34.5787 250.39 35.176C250.742 35.7733 250.918 36.44 250.918 37.176C250.918 37.9227 250.742 38.6 250.39 39.208C250.038 39.8053 249.558 40.28 248.95 40.632C248.353 40.984 247.686 41.16 246.95 41.16ZM246.95 39.768C247.43 39.768 247.857 39.656 248.23 39.432C248.603 39.208 248.897 38.904 249.11 38.52C249.323 38.1253 249.43 37.6773 249.43 37.176C249.43 36.6853 249.318 36.248 249.094 35.864C248.881 35.48 248.587 35.1813 248.214 34.968C247.851 34.744 247.43 34.632 246.95 34.632C246.47 34.632 246.043 34.744 245.67 34.968C245.297 35.1813 245.003 35.48 244.79 35.864C244.577 36.248 244.47 36.6853 244.47 37.176C244.47 37.6773 244.577 38.1253 244.79 38.52C245.003 38.904 245.297 39.208 245.67 39.432C246.043 39.656 246.47 39.768 246.95 39.768ZM254.956 41.16C254.53 41.16 254.124 41.1067 253.74 41C253.367 40.8827 253.02 40.7227 252.7 40.52C252.38 40.3067 252.103 40.056 251.868 39.768L252.796 38.84C253.074 39.1813 253.394 39.4373 253.756 39.608C254.119 39.768 254.524 39.848 254.972 39.848C255.42 39.848 255.767 39.7733 256.012 39.624C256.258 39.464 256.38 39.2453 256.38 38.968C256.38 38.6907 256.279 38.4773 256.076 38.328C255.884 38.168 255.634 38.04 255.324 37.944C255.015 37.8373 254.684 37.736 254.332 37.64C253.991 37.5333 253.666 37.4 253.356 37.24C253.047 37.08 252.791 36.8613 252.588 36.584C252.396 36.3067 252.3 35.9387 252.3 35.48C252.3 35.0213 252.412 34.6267 252.636 34.296C252.86 33.9547 253.17 33.6933 253.564 33.512C253.97 33.3307 254.455 33.24 255.02 33.24C255.618 33.24 256.146 33.3467 256.604 33.56C257.074 33.7627 257.458 34.072 257.756 34.488L256.828 35.416C256.615 35.1387 256.348 34.9253 256.028 34.776C255.719 34.6267 255.367 34.552 254.972 34.552C254.556 34.552 254.236 34.6267 254.012 34.776C253.799 34.9147 253.692 35.112 253.692 35.368C253.692 35.624 253.788 35.8213 253.98 35.96C254.172 36.0987 254.423 36.216 254.732 36.312C255.052 36.408 255.383 36.5093 255.724 36.616C256.066 36.712 256.391 36.8453 256.7 37.016C257.01 37.1867 257.26 37.416 257.452 37.704C257.655 37.992 257.756 38.3707 257.756 38.84C257.756 39.5547 257.5 40.12 256.988 40.536C256.487 40.952 255.81 41.16 254.956 41.16ZM260.537 41V30.216H261.977V41H260.537ZM258.665 34.712V33.4H263.849V34.712H258.665ZM272.587 41.16C272.011 41.16 271.489 41.0427 271.019 40.808C270.561 40.5627 270.193 40.2267 269.915 39.8C269.638 39.3733 269.483 38.888 269.451 38.344V36.056C269.483 35.5013 269.638 35.016 269.915 34.6C270.203 34.1733 270.577 33.8427 271.035 33.608C271.505 33.3627 272.022 33.24 272.587 33.24C273.281 33.24 273.905 33.416 274.459 33.768C275.025 34.12 275.467 34.5947 275.787 35.192C276.107 35.7893 276.267 36.4613 276.267 37.208C276.267 37.9547 276.107 38.6267 275.787 39.224C275.467 39.8213 275.025 40.296 274.459 40.648C273.905 40.9893 273.281 41.16 272.587 41.16ZM272.347 39.8C272.827 39.8 273.249 39.688 273.611 39.464C273.974 39.24 274.262 38.936 274.475 38.552C274.689 38.1573 274.795 37.704 274.795 37.192C274.795 36.6907 274.689 36.2427 274.475 35.848C274.262 35.4533 273.974 35.1493 273.611 34.936C273.249 34.712 272.833 34.6 272.363 34.6C271.883 34.6 271.462 34.712 271.099 34.936C270.737 35.1493 270.454 35.4533 270.251 35.848C270.049 36.2427 269.947 36.696 269.947 37.208C269.947 37.7093 270.043 38.1573 270.235 38.552C270.438 38.936 270.721 39.24 271.083 39.464C271.457 39.688 271.878 39.8 272.347 39.8ZM268.587 44.184V33.4H270.027V35.4L269.755 37.24L270.027 39.096V44.184H268.587ZM281.372 41.16C280.625 41.16 279.953 40.984 279.356 40.632C278.758 40.28 278.284 39.8053 277.932 39.208C277.58 38.6 277.404 37.9227 277.404 37.176C277.404 36.44 277.58 35.7787 277.932 35.192C278.284 34.5947 278.758 34.12 279.356 33.768C279.953 33.416 280.625 33.24 281.372 33.24C282.108 33.24 282.774 33.416 283.372 33.768C283.98 34.1093 284.46 34.5787 284.812 35.176C285.164 35.7733 285.34 36.44 285.34 37.176C285.34 37.9227 285.164 38.6 284.812 39.208C284.46 39.8053 283.98 40.28 283.372 40.632C282.774 40.984 282.108 41.16 281.372 41.16ZM281.372 39.768C281.852 39.768 282.278 39.656 282.652 39.432C283.025 39.208 283.318 38.904 283.532 38.52C283.745 38.1253 283.852 37.6773 283.852 37.176C283.852 36.6853 283.74 36.248 283.516 35.864C283.302 35.48 283.009 35.1813 282.636 34.968C282.273 34.744 281.852 34.632 281.372 34.632C280.892 34.632 280.465 34.744 280.092 34.968C279.718 35.1813 279.425 35.48 279.212 35.864C278.998 36.248 278.892 36.6853 278.892 37.176C278.892 37.6773 278.998 38.1253 279.212 38.52C279.425 38.904 279.718 39.208 280.092 39.432C280.465 39.656 280.892 39.768 281.372 39.768ZM290.962 41.16C290.386 41.16 289.864 41.0427 289.394 40.808C288.936 40.5627 288.568 40.2267 288.29 39.8C288.013 39.3733 287.858 38.888 287.826 38.344V36.056C287.858 35.5013 288.013 35.016 288.29 34.6C288.578 34.1733 288.952 33.8427 289.41 33.608C289.88 33.3627 290.397 33.24 290.962 33.24C291.656 33.24 292.28 33.416 292.834 33.768C293.4 34.12 293.842 34.5947 294.162 35.192C294.482 35.7893 294.642 36.4613 294.642 37.208C294.642 37.9547 294.482 38.6267 294.162 39.224C293.842 39.8213 293.4 40.296 292.834 40.648C292.28 40.9893 291.656 41.16 290.962 41.16ZM290.722 39.8C291.202 39.8 291.624 39.688 291.986 39.464C292.349 39.24 292.637 38.936 292.85 38.552C293.064 38.1573 293.17 37.704 293.17 37.192C293.17 36.6907 293.064 36.2427 292.85 35.848C292.637 35.4533 292.349 35.1493 291.986 34.936C291.624 34.712 291.208 34.6 290.738 34.6C290.258 34.6 289.837 34.712 289.474 34.936C289.112 35.1493 288.829 35.4533 288.626 35.848C288.424 36.2427 288.322 36.696 288.322 37.208C288.322 37.7093 288.418 38.1573 288.61 38.552C288.813 38.936 289.096 39.24 289.458 39.464C289.832 39.688 290.253 39.8 290.722 39.8ZM286.962 44.184V33.4H288.402V35.4L288.13 37.24L288.402 39.096V44.184H286.962ZM299.331 41.16C298.712 41.16 298.152 41.0213 297.651 40.744C297.16 40.456 296.776 40.0613 296.499 39.56C296.221 39.0587 296.083 38.4773 296.083 37.816V33.4H297.523V37.752C297.523 38.168 297.592 38.5307 297.731 38.84C297.88 39.1387 298.093 39.368 298.371 39.528C298.648 39.688 298.973 39.768 299.347 39.768C299.912 39.768 300.355 39.592 300.675 39.24C300.995 38.8773 301.155 38.3813 301.155 37.752V33.4H302.595V37.816C302.595 38.4773 302.456 39.0587 302.179 39.56C301.901 40.0613 301.517 40.456 301.027 40.744C300.547 41.0213 299.981 41.16 299.331 41.16ZM304.525 41V29.576H305.965V41H304.525ZM311.304 41.16C310.61 41.16 309.981 40.9893 309.416 40.648C308.85 40.296 308.402 39.8213 308.072 39.224C307.752 38.6267 307.592 37.9547 307.592 37.208C307.592 36.4613 307.752 35.7893 308.072 35.192C308.402 34.5947 308.845 34.12 309.4 33.768C309.965 33.416 310.6 33.24 311.304 33.24C311.88 33.24 312.392 33.3627 312.84 33.608C313.298 33.8427 313.666 34.1733 313.944 34.6C314.221 35.016 314.376 35.5013 314.408 36.056V38.344C314.376 38.888 314.221 39.3733 313.944 39.8C313.677 40.2267 313.314 40.5627 312.856 40.808C312.408 41.0427 311.89 41.16 311.304 41.16ZM311.544 39.8C312.258 39.8 312.834 39.56 313.272 39.08C313.709 38.5893 313.928 37.9653 313.928 37.208C313.928 36.6853 313.826 36.232 313.624 35.848C313.432 35.4533 313.154 35.1493 312.792 34.936C312.429 34.712 312.008 34.6 311.528 34.6C311.048 34.6 310.621 34.712 310.248 34.936C309.885 35.16 309.597 35.4693 309.384 35.864C309.181 36.248 309.08 36.6907 309.08 37.192C309.08 37.704 309.181 38.1573 309.384 38.552C309.597 38.936 309.89 39.24 310.264 39.464C310.637 39.688 311.064 39.8 311.544 39.8ZM313.832 41V38.952L314.104 37.096L313.832 35.256V33.4H315.288V41H313.832ZM317.384 41V33.4H318.824V41H317.384ZM318.824 36.664L318.28 36.424C318.28 35.4533 318.504 34.68 318.952 34.104C319.4 33.528 320.045 33.24 320.888 33.24C321.272 33.24 321.619 33.3093 321.928 33.448C322.237 33.576 322.525 33.7947 322.792 34.104L321.848 35.08C321.688 34.9093 321.512 34.7867 321.32 34.712C321.128 34.6373 320.904 34.6 320.648 34.6C320.115 34.6 319.677 34.7707 319.336 35.112C318.995 35.4533 318.824 35.9707 318.824 36.664Z" fill="#18181B"/>
</svg>
