<svg width="22" height="16" viewBox="0 0 22 16" fill="none" xmlns="http://www.w3.org/2000/svg">
<path d="M16.5668 9.61924C16.8051 9.61924 17.0338 9.5829 17.2615 9.54977C17.1878 9.79773 17.1119 10.05 16.99 10.2766C16.8682 10.6057 16.6779 10.8911 16.4888 11.1786C16.3306 11.4896 16.0516 11.7002 15.8464 11.9663C15.6316 12.225 15.3387 12.3971 15.1068 12.6119C14.8791 12.8363 14.5809 12.9486 14.3437 13.1067C14.0957 13.2489 13.8798 13.406 13.6489 13.4808L13.0729 13.7181L12.5662 13.9287L13.0846 16L13.7227 15.8461C13.9268 15.7948 14.1759 15.7349 14.4591 15.6633C14.7487 15.6099 15.0576 15.4635 15.4018 15.3299C15.7417 15.1781 16.135 15.0755 16.5005 14.8318C16.8682 14.5988 17.2925 14.4043 17.6666 14.0922C18.0289 13.7705 18.466 13.4915 18.7888 13.0822C19.1415 12.6995 19.49 12.2977 19.7604 11.8402C20.0735 11.4041 20.2862 10.9253 20.5107 10.4518C20.7137 9.97836 20.8773 9.49419 21.0109 9.02391C21.2642 8.08123 21.3775 7.18557 21.4213 6.41924C21.4576 5.65184 21.4362 5.01376 21.3914 4.55204C21.3753 4.334 21.3454 4.12238 21.324 3.97595L21.2973 3.79639L21.2695 3.8028C21.0794 2.91481 20.6418 2.09878 20.0073 1.44911C19.3728 0.799434 18.5673 0.342668 17.6841 0.13165C16.8008 -0.0793686 15.8759 -0.0360165 15.0162 0.256691C14.1566 0.549397 13.3973 1.0795 12.8264 1.78567C12.2554 2.49184 11.8961 3.34523 11.7898 4.24711C11.6836 5.14899 11.8349 6.06252 12.2262 6.88201C12.6175 7.7015 13.2328 8.39347 14.001 8.87786C14.7691 9.36226 15.6587 9.6193 16.5668 9.61924ZM4.80994 9.61924C5.04828 9.61924 5.277 9.5829 5.50466 9.54977C5.43091 9.79773 5.35503 10.05 5.23318 10.2766C5.11134 10.6057 4.92109 10.8911 4.73191 11.1786C4.57373 11.4896 4.29477 11.7002 4.08956 11.9663C3.87473 12.225 3.58188 12.3971 3.34995 12.6119C3.1223 12.8363 2.8241 12.9486 2.58682 13.1067C2.33886 13.2489 2.12296 13.406 1.8921 13.4808L1.31602 13.7181L0.809404 13.9287L1.32777 16L1.96585 15.8461C2.16999 15.7948 2.41902 15.7349 2.70226 15.6633C2.9919 15.6099 3.30079 15.4635 3.64494 15.3299C3.98375 15.177 4.37814 15.0755 4.74367 14.8307C5.11134 14.5977 5.53565 14.4032 5.90973 14.0911C6.27206 13.7694 6.7092 13.4904 7.03198 13.0822C7.38469 12.6995 7.73311 12.2977 8.00352 11.8402C8.31668 11.4041 8.52937 10.9253 8.75382 10.4518C8.95689 9.97836 9.12042 9.49419 9.25402 9.02391C9.50733 8.08123 9.62062 7.18557 9.66444 6.41924C9.70078 5.65184 9.67941 5.01376 9.63452 4.55204C9.61849 4.334 9.58856 4.12238 9.56718 3.97595L9.54046 3.79639L9.51267 3.8028C9.32257 2.91481 8.88496 2.09878 8.25045 1.44911C7.61595 0.799434 6.81048 0.342668 5.92722 0.13165C5.04396 -0.0793686 4.11901 -0.0360165 3.25937 0.256691C2.39972 0.549397 1.6405 1.0795 1.06954 1.78567C0.498585 2.49184 0.139214 3.34523 0.0330048 4.24711C-0.0732021 5.14899 0.0780907 6.06252 0.469383 6.88201C0.860674 7.7015 1.47598 8.39347 2.24411 8.87786C3.01225 9.36226 3.90182 9.6193 4.80994 9.61924Z" fill="#673EE5"/>
</svg>
