<svg width="249" height="343" viewBox="0 0 249 343" fill="none" xmlns="http://www.w3.org/2000/svg">
<path d="M0.666667 6.03499C0.666667 8.9805 3.05448 11.3683 6 11.3683C8.94552 11.3683 11.3333 8.9805 11.3333 6.03499C11.3333 3.08947 8.94552 0.701653 6 0.701653C3.05448 0.701653 0.666667 3.08947 0.666667 6.03499ZM247.247 100.971L246.249 101.046L247.247 100.971ZM105.396 253.95L104.918 254.829L105.396 253.95ZM100.401 172.787L99.7745 172.008L100.401 172.787ZM247.247 262.804L248.232 262.635L247.247 262.804ZM6 335.605L15.4909 342.182L16.4412 330.674L6 335.605ZM6 6.03499C6.02012 7.03478 6.02011 7.03478 6.02011 7.03478C6.02011 7.03478 6.0201 7.03478 6.02011 7.03478C6.02011 7.03478 6.02012 7.03478 6.02015 7.03478C6.0202 7.03478 6.02029 7.03478 6.02041 7.03478C6.02067 7.03477 6.02108 7.03476 6.02165 7.03475C6.02278 7.03473 6.02453 7.0347 6.02691 7.03465C6.03167 7.03456 6.03891 7.03442 6.04863 7.03424C6.06805 7.03387 6.09736 7.03334 6.13643 7.03266C6.21455 7.03131 6.33169 7.0294 6.4868 7.02717C6.79704 7.0227 7.25918 7.01697 7.86499 7.01192L7.84832 5.01199C7.23837 5.01707 6.77219 5.02286 6.45804 5.02737C6.30096 5.02963 6.18188 5.03158 6.10185 5.03296C6.06183 5.03365 6.03157 5.03421 6.0112 5.03459C6.00101 5.03478 5.9933 5.03493 5.98808 5.03503C5.98546 5.03508 5.98347 5.03512 5.98211 5.03514C5.98142 5.03516 5.9809 5.03517 5.98052 5.03518C5.98034 5.03518 5.98019 5.03518 5.98009 5.03518C5.98003 5.03519 5.97999 5.03519 5.97995 5.03519C5.97994 5.03519 5.97992 5.03519 5.97991 5.03519C5.97989 5.03519 5.97988 5.03519 6 6.03499ZM11.9512 7.0012C13.1235 7.00389 14.457 7.01139 15.9403 7.02639L15.9605 5.02649C14.4718 5.01144 13.1331 5.0039 11.9558 5.0012L11.9512 7.0012ZM19.8332 7.07906C21.0817 7.10008 22.4044 7.12621 23.797 7.15849L23.8434 5.15903C22.4465 5.12665 21.1195 5.10043 19.8668 5.07934L19.8332 7.07906ZM27.8676 7.26556C29.122 7.30242 30.4213 7.34413 31.7629 7.39127L31.8332 5.39251C30.4876 5.34523 29.1845 5.3034 27.9264 5.26642L27.8676 7.26556ZM35.791 7.54458C37.0718 7.59705 38.385 7.65439 39.7289 7.71702L39.822 5.71919C38.4743 5.65638 37.1573 5.59888 35.8729 5.54626L35.791 7.54458ZM43.7468 7.91576C45.0346 7.98314 46.3467 8.05533 47.6819 8.13267L47.7975 6.13602C46.4586 6.05846 45.1427 5.98606 43.8513 5.91849L43.7468 7.91576ZM51.7151 8.37791C53.0018 8.45985 54.3073 8.54656 55.6304 8.6383L55.7687 6.64309C54.4418 6.55109 53.1326 6.46413 51.8422 6.38195L51.7151 8.37791ZM59.6518 8.92885C60.9472 9.02625 62.2577 9.12847 63.5823 9.23574L63.7437 7.24227C62.4153 7.13468 61.1009 7.03216 59.8018 6.93448L59.6518 8.92885ZM67.5568 9.56944C68.8722 9.68381 70.2001 9.80318 71.5394 9.92778L71.7247 7.93638C70.3812 7.8114 69.0494 7.69167 67.7301 7.57696L67.5568 9.56944ZM75.4749 10.3059C76.7971 10.437 78.1293 10.5732 79.4707 10.7148L79.6805 8.72583C78.3349 8.58384 76.9985 8.44718 75.6723 8.31567L75.4749 10.3059ZM83.4034 11.1423C84.7133 11.2889 86.031 11.4407 87.3557 11.5977L87.5911 9.61162C86.262 9.45407 84.94 9.30183 83.6259 9.15474L83.4034 11.1423ZM91.3338 12.0828C92.6349 12.2459 93.9419 12.4142 95.2543 12.5879L95.5166 10.6052C94.1997 10.4309 92.8881 10.262 91.5826 10.0984L91.3338 12.0828ZM99.2065 13.125C100.518 13.3079 101.833 13.4962 103.153 13.6901L103.444 11.7114C102.119 11.5168 100.799 11.3277 99.4828 11.1442L99.2065 13.125ZM107.075 14.2813C108.386 14.4839 109.7 14.6921 111.016 14.906L111.337 12.9319C110.015 12.7172 108.696 12.5082 107.381 12.3048L107.075 14.2813ZM114.939 15.5595C116.242 15.782 117.547 16.0102 118.853 16.2442L119.206 14.2756C117.894 14.0405 116.584 13.8114 115.276 13.5881L114.939 15.5595ZM122.774 16.9641C124.075 17.2087 125.376 17.4593 126.677 17.716L127.064 15.7538C125.757 15.496 124.45 15.2443 123.143 14.9986L122.774 16.9641ZM130.574 18.5033C131.873 18.7719 133.171 19.0468 134.467 19.328L134.891 17.3734C133.588 17.0908 132.284 16.8147 130.979 16.5448L130.574 18.5033ZM138.351 20.1903C139.643 20.4842 140.934 20.7846 142.223 21.0917L142.686 19.1461C141.391 18.8375 140.093 18.5355 138.794 18.2401L138.351 20.1903ZM146.081 22.0333C147.371 22.3555 148.657 22.6845 149.94 23.0205L150.447 21.0858C149.157 20.7478 147.863 20.4169 146.566 20.0929L146.081 22.0333ZM153.776 24.0498C155.054 24.4009 156.328 24.7593 157.597 25.1249L158.151 23.2031C156.874 22.8351 155.592 22.4746 154.306 22.1212L153.776 24.0498ZM161.419 26.2535C162.687 26.6372 163.949 27.0285 165.206 27.4275L165.811 25.5214C164.546 25.1195 163.275 24.7255 161.998 24.3391L161.419 26.2535ZM168.982 28.6572C170.245 29.0789 171.502 29.5087 172.75 29.9468L173.412 28.0597C172.154 27.6181 170.888 27.185 169.615 26.7601L168.982 28.6572ZM176.469 31.2861C177.719 31.7478 178.96 32.2182 180.192 32.6974L180.917 30.8336C179.675 30.3501 178.423 29.8756 177.162 29.41L176.469 31.2861ZM183.881 34.1719C185.101 34.6724 186.31 35.1821 187.508 35.701L188.303 33.8658C187.093 33.3416 185.872 32.8269 184.641 32.3216L183.881 34.1719ZM191.16 37.3284C192.366 37.8809 193.559 38.4434 194.739 39.016L195.612 37.2167C194.419 36.6375 193.212 36.0688 191.994 35.5103L191.16 37.3284ZM198.275 40.7838C199.462 41.3952 200.634 42.0175 201.79 42.6509L202.751 40.8969C201.58 40.255 200.392 39.6247 199.19 39.0058L198.275 40.7838ZM205.211 44.5847C206.365 45.2583 207.502 45.9438 208.62 46.6413L209.679 44.9445C208.543 44.2361 207.39 43.5405 206.219 42.8573L205.211 44.5847ZM211.939 48.7841C213.038 49.5193 214.118 50.2672 215.176 51.028L216.343 49.4041C215.266 48.6296 214.168 47.8688 213.05 47.1214L211.939 48.7841ZM218.356 53.403C219.393 54.2083 220.407 55.0273 221.397 55.8603L222.685 54.3299C221.674 53.4796 220.64 52.6442 219.582 51.8233L218.356 53.403ZM224.384 58.4836C225.354 59.3743 226.298 60.2801 227.214 61.2013L228.632 59.7912C227.694 58.8477 226.729 57.9208 225.736 57.0101L224.384 58.4836ZM229.924 64.0637C230.807 65.0436 231.658 66.0399 232.478 67.053L234.033 65.7949C233.19 64.7538 232.316 63.7307 231.411 62.7254L229.924 64.0637ZM234.858 70.1673C235.627 71.2347 236.362 72.3198 237.061 73.4229L238.75 72.3524C238.029 71.215 237.273 70.0971 236.481 68.9982L234.858 70.1673ZM239.052 76.7905C239.682 77.9362 240.275 79.1005 240.83 80.2838L242.641 79.4351C242.068 78.2122 241.455 77.0096 240.805 75.8267L239.052 76.7905ZM242.377 83.8904C242.848 85.0965 243.279 86.3215 243.672 87.5658L245.579 86.9647C245.174 85.6777 244.727 84.4107 244.24 83.1635L242.377 83.8904ZM244.727 91.3572C245.03 92.6069 245.295 93.8755 245.519 95.1631L247.489 94.8202C247.258 93.4895 246.984 92.1781 246.671 90.8858L244.727 91.3572ZM246.067 99.0563C246.138 99.7148 246.199 100.378 246.249 101.046L248.244 100.895C248.191 100.206 248.128 99.5212 248.055 98.8414L246.067 99.0563ZM246.249 101.046C246.3 101.713 246.342 102.38 246.375 103.047L248.373 102.947C248.339 102.263 248.296 101.579 248.244 100.895L246.249 101.046ZM246.474 107.057C246.474 108.392 246.44 109.728 246.375 111.065L248.373 111.163C248.44 109.794 248.474 108.426 248.474 107.058L246.474 107.057ZM246.085 115.073C245.958 116.4 245.8 117.728 245.613 119.056L247.594 119.335C247.785 117.978 247.946 116.621 248.076 115.264L246.085 115.073ZM244.966 123.03C244.724 124.34 244.454 125.65 244.157 126.959L246.108 127.401C246.411 126.067 246.686 124.731 246.933 123.393L244.966 123.03ZM243.189 130.876C242.845 132.163 242.475 133.449 242.081 134.732L243.993 135.319C244.394 134.013 244.77 132.704 245.121 131.393L243.189 130.876ZM240.827 138.575C240.392 139.835 239.934 141.092 239.454 142.347L241.322 143.061C241.81 141.787 242.275 140.509 242.718 139.228L240.827 138.575ZM237.95 146.101C237.434 147.332 236.898 148.56 236.343 149.784L238.164 150.611C238.727 149.369 239.271 148.123 239.795 146.874L237.95 146.101ZM234.618 153.446C234.031 154.646 233.426 155.843 232.804 157.036L234.577 157.961C235.207 156.753 235.82 155.54 236.415 154.323L234.618 153.446ZM230.884 160.6C230.235 161.771 229.569 162.936 228.887 164.097L230.612 165.109C231.301 163.935 231.975 162.756 232.633 161.571L230.884 160.6ZM226.796 167.563C226.09 168.703 225.37 169.837 224.635 170.966L226.311 172.057C227.054 170.916 227.783 169.768 228.496 168.616L226.796 167.563ZM222.391 174.334C221.635 175.444 220.865 176.548 220.083 177.645L221.711 178.806C222.501 177.697 223.279 176.582 224.044 175.46L222.391 174.334ZM217.702 180.916C216.899 181.996 216.085 183.07 215.26 184.136L216.842 185.36C217.675 184.283 218.497 183.2 219.307 182.109L217.702 180.916ZM212.755 187.311C211.91 188.361 211.055 189.404 210.191 190.44L211.727 191.721C212.598 190.677 213.461 189.624 214.313 188.564L212.755 187.311ZM207.572 193.521C206.689 194.541 205.797 195.553 204.897 196.557L206.387 197.892C207.294 196.88 208.194 195.859 209.084 194.829L207.572 193.521ZM202.172 199.546C201.253 200.536 200.327 201.517 199.395 202.489L200.838 203.874C201.778 202.894 202.712 201.904 203.638 200.906L202.172 199.546ZM196.569 205.385C195.618 206.345 194.66 207.295 193.697 208.234L195.094 209.665C196.065 208.718 197.03 207.761 197.989 206.794L196.569 205.385ZM190.776 211.038C189.793 211.966 188.806 212.883 187.815 213.789L189.164 215.266C190.163 214.352 191.159 213.427 192.149 212.492L190.776 211.038ZM184.802 216.498C183.789 217.395 182.773 218.279 181.754 219.15L183.055 220.67C184.081 219.791 185.106 218.9 186.127 217.996L184.802 216.498ZM178.653 221.761C177.61 222.624 176.565 223.473 175.52 224.309L176.769 225.871C177.823 225.028 178.876 224.172 179.928 223.302L178.653 221.761ZM172.333 226.814C171.26 227.643 170.187 228.456 169.115 229.255L170.309 230.859C171.39 230.054 172.473 229.233 173.555 228.397L172.333 226.814ZM165.844 231.644C164.739 232.436 163.636 233.211 162.536 233.968L163.671 235.616C164.781 234.851 165.894 234.069 167.009 233.27L165.844 231.644ZM159.187 236.227C158.047 236.98 156.912 237.712 155.783 238.425L156.849 240.116C157.991 239.397 159.138 238.656 160.289 237.896L159.187 236.227ZM152.362 240.531C151.183 241.238 150.012 241.923 148.85 242.583L149.838 244.322C151.014 243.654 152.199 242.961 153.391 242.245L152.362 240.531ZM145.338 244.521C144.126 245.169 142.925 245.79 141.738 246.381L142.631 248.171C143.835 247.571 145.053 246.941 146.282 246.284L145.338 244.521ZM138.095 248.127C136.86 248.694 135.641 249.228 134.443 249.727L135.211 251.574C136.433 251.065 137.673 250.522 138.93 249.944L138.095 248.127ZM130.674 251.205C129.374 251.682 128.101 252.113 126.86 252.498L127.452 254.408C128.728 254.013 130.033 253.57 131.362 253.082L130.674 251.205ZM123.013 253.563C121.671 253.888 120.374 254.15 119.126 254.347L119.439 256.323C120.744 256.116 122.094 255.844 123.483 255.507L123.013 253.563ZM115.206 254.76C113.817 254.826 112.513 254.791 111.299 254.657L111.079 256.645C112.411 256.792 113.821 256.828 115.3 256.758L115.206 254.76ZM107.564 253.825C106.964 253.609 106.401 253.358 105.873 253.071L104.918 254.829C105.541 255.167 106.198 255.459 106.887 255.707L107.564 253.825ZM105.873 253.071C105.306 252.763 104.753 252.446 104.212 252.118L103.176 253.829C103.743 254.173 104.324 254.506 104.918 254.829L105.873 253.071ZM101.063 249.999C100.035 249.232 99.0618 248.426 98.1417 247.585L96.7919 249.06C97.761 249.947 98.7855 250.795 99.867 251.602L101.063 249.999ZM95.4721 244.882C94.6232 243.931 93.83 242.944 93.0906 241.926L91.4723 243.101C92.2504 244.172 93.0856 245.211 93.9798 246.214L95.4721 244.882ZM91.0126 238.747C90.3701 237.652 89.7813 236.529 89.2442 235.381L87.4326 236.228C87.9952 237.431 88.6129 238.61 89.2876 239.76L91.0126 238.747ZM87.7855 231.862C87.3508 230.67 86.9661 229.457 86.6296 228.227L84.7006 228.755C85.051 230.036 85.4523 231.302 85.9065 232.547L87.7855 231.862ZM85.7656 224.505C85.5254 223.256 85.3312 221.995 85.1811 220.726L83.1949 220.961C83.3505 222.276 83.552 223.585 83.8016 224.883L85.7656 224.505ZM84.8623 216.91C84.799 215.634 84.7778 214.355 84.797 213.077L82.7972 213.047C82.7774 214.368 82.7992 215.69 82.8648 217.009L84.8623 216.91ZM84.9744 209.246C85.0732 207.967 85.2109 206.694 85.3858 205.429L83.4047 205.155C83.2244 206.459 83.0823 207.772 82.9803 209.092L84.9744 209.246ZM86.0249 201.645C86.2767 200.383 86.5649 199.136 86.8875 197.907L84.9531 197.399C84.6204 198.667 84.3232 199.953 84.0636 201.253L86.0249 201.645ZM87.9755 194.224C88.3794 192.997 88.8179 191.795 89.2888 190.622L87.4328 189.877C86.9459 191.09 86.4928 192.332 86.0758 193.599L87.9755 194.224ZM90.8334 187.122C91.3981 185.953 91.9961 184.824 92.6246 183.739L90.8942 182.736C90.2396 183.866 89.6182 185.04 89.0326 186.252L90.8334 187.122ZM94.6662 180.528C95.411 179.462 96.1878 178.455 96.9928 177.515L95.4736 176.214C94.6233 177.207 93.8065 178.266 93.0264 179.383L94.6662 180.528ZM99.6065 174.792C100.073 174.361 100.547 173.953 101.027 173.567L99.7745 172.008C99.2576 172.423 98.7494 172.862 98.2505 173.322L99.6065 174.792ZM101.027 173.567C101.46 173.219 101.952 172.892 102.505 172.587L101.538 170.836C100.897 171.19 100.307 171.58 99.7745 172.008L101.027 173.567ZM105.948 171.202C107.069 170.876 108.307 170.609 109.654 170.403L109.352 168.426C107.932 168.643 106.607 168.928 105.389 169.282L105.948 171.202ZM113.483 170C114.714 169.922 116.008 169.885 117.359 169.889L117.364 167.889C115.974 167.885 114.636 167.923 113.357 168.004L113.483 170ZM121.254 170.004C122.518 170.073 123.821 170.173 125.159 170.304L125.354 168.313C123.988 168.18 122.657 168.077 121.363 168.007L121.254 170.004ZM129.034 170.756C130.291 170.926 131.574 171.12 132.88 171.34L133.211 169.367C131.885 169.145 130.581 168.947 129.302 168.774L129.034 170.756ZM136.73 172.045C137.996 172.296 139.28 172.569 140.581 172.864L141.023 170.913C139.705 170.615 138.403 170.338 137.119 170.084L136.73 172.045ZM144.37 173.773C145.619 174.089 146.881 174.425 148.153 174.779L148.69 172.853C147.403 172.494 146.126 172.155 144.861 171.834L144.37 173.773ZM151.935 175.881C153.167 176.255 154.407 176.646 155.654 177.055L156.277 175.155C155.016 174.741 153.762 174.345 152.516 173.967L151.935 175.881ZM159.368 178.318C160.593 178.749 161.823 179.197 163.057 179.662L163.762 177.79C162.514 177.32 161.271 176.868 160.032 176.431L159.368 178.318ZM166.702 181.077C167.911 181.561 169.123 182.061 170.335 182.577L171.118 180.736C169.893 180.215 168.668 179.71 167.446 179.22L166.702 181.077ZM173.918 184.145C175.106 184.68 176.292 185.229 177.477 185.794L178.337 183.988C177.139 183.418 175.94 182.862 174.74 182.322L173.918 184.145ZM180.999 187.517C182.162 188.102 183.322 188.701 184.478 189.315L185.416 187.548C184.246 186.928 183.073 186.322 181.897 185.731L180.999 187.517ZM187.924 191.192C189.06 191.828 190.191 192.478 191.317 193.142L192.333 191.419C191.194 190.748 190.05 190.09 188.9 189.447L187.924 191.192ZM194.669 195.173C195.776 195.861 196.877 196.564 197.968 197.28L199.065 195.608C197.96 194.883 196.846 194.171 195.726 193.474L194.669 195.173ZM201.216 199.469C202.289 200.212 203.352 200.968 204.405 201.738L205.586 200.124C204.519 199.344 203.441 198.577 202.355 197.825L201.216 199.469ZM207.534 204.091C208.566 204.889 209.586 205.701 210.594 206.526L211.861 204.979C210.839 204.141 209.804 203.318 208.757 202.509L207.534 204.091ZM213.586 209.049C214.571 209.904 215.541 210.773 216.497 211.656L217.854 210.186C216.883 209.29 215.897 208.407 214.897 207.539L213.586 209.049ZM219.328 214.353C220.258 215.268 221.172 216.196 222.068 217.138L223.517 215.759C222.605 214.801 221.676 213.857 220.731 212.928L219.328 214.353ZM224.711 220.013C225.577 220.988 226.424 221.977 227.251 222.979L228.793 221.706C227.951 220.685 227.088 219.678 226.207 218.685L224.711 220.013ZM229.676 226.033C230.466 227.068 231.236 228.117 231.983 229.18L233.619 228.03C232.857 226.945 232.072 225.875 231.265 224.819L229.676 226.033ZM234.159 232.413C234.863 233.507 235.543 234.614 236.198 235.735L237.925 234.726C237.255 233.579 236.56 232.448 235.841 231.331L234.159 232.413ZM238.089 239.139C238.694 240.287 239.273 241.45 239.826 242.625L241.636 241.775C241.07 240.571 240.478 239.382 239.859 238.207L238.089 239.139ZM241.396 246.183C241.892 247.382 242.36 248.594 242.799 249.819L244.681 249.145C244.232 247.889 243.752 246.647 243.245 245.419L241.396 246.183ZM244.018 253.505C244.394 254.742 244.74 255.993 245.057 257.257L246.997 256.771C246.672 255.475 246.317 254.192 245.932 252.924L244.018 253.505ZM245.905 261.048C246.032 261.687 246.15 262.328 246.261 262.973L248.232 262.635C248.119 261.973 247.997 261.315 247.867 260.66L245.905 261.048ZM246.261 262.973C246.377 263.648 246.479 264.317 246.567 264.979L248.55 264.715C248.458 264.028 248.352 263.334 248.232 262.635L246.261 262.973ZM246.933 268.878C247.004 270.187 247.018 271.47 246.978 272.728L248.977 272.792C249.019 271.475 249.004 270.135 248.931 268.771L246.933 268.878ZM246.673 276.626C246.51 277.917 246.288 279.18 246.007 280.416L247.958 280.858C248.253 279.558 248.487 278.231 248.658 276.876L246.673 276.626ZM244.956 284.158C244.544 285.383 244.072 286.58 243.542 287.75L245.363 288.575C245.921 287.345 246.418 286.085 246.852 284.796L244.956 284.158ZM241.767 291.202C241.125 292.315 240.427 293.403 239.676 294.465L241.309 295.62C242.095 294.509 242.826 293.37 243.5 292.202L241.767 291.202ZM237.29 297.546C236.463 298.526 235.588 299.483 234.666 300.418L236.091 301.822C237.047 300.852 237.957 299.857 238.819 298.836L237.29 297.546ZM231.819 303.108C230.855 303.958 229.85 304.789 228.806 305.6L230.033 307.179C231.108 306.344 232.145 305.487 233.142 304.608L231.819 303.108ZM225.641 307.918C224.575 308.656 223.476 309.375 222.344 310.078L223.399 311.777C224.557 311.058 225.684 310.32 226.779 309.563L225.641 307.918ZM218.971 312.068C217.828 312.71 216.657 313.336 215.458 313.947L216.367 315.729C217.588 315.106 218.783 314.467 219.95 313.812L218.971 312.068ZM211.954 315.657C210.762 316.213 209.547 316.755 208.31 317.284L209.097 319.123C210.353 318.586 211.587 318.035 212.8 317.469L211.954 315.657ZM204.683 318.773C203.468 319.252 202.234 319.719 200.982 320.175L201.666 322.054C202.934 321.593 204.184 321.12 205.416 320.634L204.683 318.773ZM197.222 321.491C195.992 321.905 194.747 322.308 193.488 322.702L194.084 324.611C195.357 324.213 196.616 323.805 197.86 323.386L197.222 321.491ZM189.668 323.852C188.412 324.216 187.143 324.571 185.863 324.917L186.384 326.848C187.676 326.499 188.957 326.141 190.225 325.773L189.668 323.852ZM182.037 325.913C180.751 326.237 179.453 326.551 178.146 326.857L178.602 328.805C179.919 328.496 181.227 328.179 182.525 327.853L182.037 325.913ZM174.308 327.725C173.022 328.005 171.727 328.278 170.425 328.543L170.824 330.503C172.135 330.236 173.439 329.962 174.734 329.679L174.308 327.725ZM166.506 329.314C165.219 329.558 163.926 329.795 162.626 330.025L162.974 331.994C164.282 331.763 165.584 331.524 166.879 331.279L166.506 329.314ZM158.708 330.694C157.401 330.909 156.09 331.118 154.773 331.32L155.077 333.297C156.4 333.094 157.719 332.884 159.033 332.667L158.708 330.694ZM150.858 331.899C149.549 332.086 148.236 332.267 146.919 332.442L147.182 334.424C148.505 334.249 149.825 334.067 151.141 333.879L150.858 331.899ZM142.972 332.946C141.662 333.107 140.348 333.262 139.033 333.412L139.259 335.399C140.58 335.249 141.9 335.093 143.216 334.931L142.972 332.946ZM135.082 333.844C133.764 333.983 132.445 334.116 131.125 334.244L131.318 336.235C132.643 336.106 133.967 335.973 135.291 335.834L135.082 333.844ZM127.168 334.611C125.848 334.729 124.529 334.841 123.21 334.948L123.372 336.941C124.696 336.834 126.02 336.721 127.345 336.603L127.168 334.611ZM119.245 335.256C117.92 335.354 116.596 335.447 115.274 335.535L115.408 337.531C116.734 337.442 118.063 337.349 119.392 337.25L119.245 335.256ZM111.314 335.787C109.987 335.867 108.663 335.942 107.342 336.013L107.449 338.01C108.775 337.939 110.103 337.864 111.435 337.784L111.314 335.787ZM103.362 336.215C102.039 336.277 100.719 336.336 99.4049 336.39L99.4875 338.388C100.806 338.334 102.129 338.275 103.456 338.212L103.362 336.215ZM95.4216 336.543C94.0878 336.59 92.7595 336.634 91.4373 336.673L91.4967 338.672C92.8226 338.633 94.1548 338.589 95.4925 338.542L95.4216 336.543ZM87.4901 336.779C86.1486 336.812 84.8144 336.84 83.4882 336.865L83.5257 338.865C84.8554 338.84 86.1933 338.811 87.5385 338.779L87.4901 336.779ZM79.5082 336.929C78.188 336.947 76.8768 336.961 75.5753 336.972L75.5921 338.972C76.8969 338.961 78.2115 338.947 79.5351 338.929L79.5082 336.929ZM71.5461 336.996C70.2142 337 68.8937 337.001 67.5856 336.999L67.5823 338.999C68.8937 339.001 70.2174 339 71.5527 338.996L71.5461 336.996ZM63.6149 336.983C62.2639 336.974 60.9275 336.962 59.6069 336.947L59.5843 338.947C60.9081 338.962 62.2476 338.974 63.602 338.983L63.6149 336.983ZM55.6932 336.894C54.3259 336.872 52.9775 336.847 51.6492 336.82L51.6079 338.819C52.9392 338.847 54.2908 338.872 55.6614 338.894L55.6932 336.894ZM47.7031 336.729C46.3467 336.695 45.0142 336.658 43.7069 336.619L43.6471 338.618C44.9574 338.657 46.2931 338.694 47.6526 338.729L47.7031 336.729ZM39.7301 336.491C38.3761 336.444 37.0534 336.395 35.7637 336.345L35.6855 338.343C36.9782 338.394 38.304 338.443 39.6611 338.49L39.7301 336.491ZM31.7753 336.179C30.4043 336.119 29.0778 336.058 27.7982 335.996L27.7011 337.993C28.9837 338.056 30.3135 338.117 31.6878 338.178L31.7753 336.179ZM23.86 335.795C22.4393 335.719 21.0913 335.643 19.8207 335.568L19.7033 337.564C20.9773 337.639 22.3288 337.715 23.7532 337.792L23.86 335.795ZM15.8822 335.326C14.4237 335.232 13.112 335.143 11.9583 335.061L11.8173 337.056C12.9751 337.138 14.291 337.227 15.7538 337.321L15.8822 335.326Z" fill="#2ECE8E"/>
</svg>
