<svg width="248" height="345" viewBox="0 0 248 345" fill="none" xmlns="http://www.w3.org/2000/svg">
<path d="M247.333 6.0352C247.333 8.98072 244.946 11.3685 242 11.3685C239.054 11.3685 236.667 8.98072 236.667 6.0352C236.667 3.08968 239.054 0.701864 242 0.701864C244.946 0.701864 247.333 3.08968 247.333 6.0352ZM1.75031 101.543L2.7475 101.618L1.75031 101.543ZM143.015 255.444L143.496 256.32L143.015 255.444ZM147.989 173.792L148.619 173.016L147.989 173.792ZM1.75031 264.351L0.76445 264.184L1.75031 264.351ZM242 337.59L232.515 344.175L231.555 332.668L242 337.59ZM242 6.0352C241.98 7.03499 241.98 7.03499 241.98 7.03499C241.98 7.03499 241.98 7.03499 241.98 7.03499C241.98 7.03499 241.98 7.03499 241.98 7.03499C241.98 7.03499 241.98 7.03499 241.979 7.03498C241.979 7.03498 241.979 7.03497 241.978 7.03496C241.977 7.03494 241.975 7.0349 241.973 7.03486C241.968 7.03476 241.961 7.03462 241.951 7.03444C241.932 7.03407 241.903 7.03353 241.864 7.03285C241.786 7.03149 241.669 7.02956 241.514 7.02731C241.204 7.02281 240.743 7.01704 240.138 7.01195L240.155 5.01202C240.764 5.01714 241.229 5.02297 241.543 5.02752C241.7 5.0298 241.819 5.03176 241.899 5.03316C241.938 5.03386 241.969 5.03441 241.989 5.0348C241.999 5.03499 242.007 5.03514 242.012 5.03524C242.015 5.03529 242.017 5.03533 242.018 5.03536C242.019 5.03537 242.019 5.03538 242.02 5.03539C242.02 5.03539 242.02 5.0354 242.02 5.0354C242.02 5.0354 242.02 5.0354 242.02 5.0354C242.02 5.0354 242.02 5.0354 242.02 5.0354C242.02 5.0354 242.02 5.0354 242 6.0352ZM236.062 7.00123C234.892 7.00397 233.56 7.01158 232.078 7.02679L232.057 5.02689C233.545 5.01163 234.882 5.00399 236.058 5.00123L236.062 7.00123ZM228.194 7.08004C226.949 7.10129 225.629 7.12769 224.24 7.1603L224.193 5.16085C225.587 5.12814 226.91 5.10165 228.16 5.08033L228.194 7.08004ZM220.18 7.26843C218.927 7.3057 217.63 7.34788 216.29 7.39555L216.219 5.39682C217.563 5.349 218.864 5.3067 220.121 5.26932L220.18 7.26843ZM212.273 7.55033C210.994 7.60337 209.682 7.66135 208.34 7.72467L208.246 5.72689C209.592 5.66339 210.907 5.60525 212.19 5.55204L212.273 7.55033ZM204.334 7.92528C203.048 7.99339 201.738 8.06637 200.404 8.14456L200.287 6.14799C201.624 6.06958 202.938 5.99639 204.228 5.92808L204.334 7.92528ZM196.383 8.39208C195.098 8.47492 193.795 8.56257 192.473 8.6553L192.333 6.66021C193.658 6.56721 194.966 6.4793 196.254 6.39622L196.383 8.39208ZM188.458 8.94904C187.166 9.04734 185.86 9.15051 184.54 9.25877L184.376 7.26546C185.7 7.15687 187.011 7.0534 188.306 6.95481L188.458 8.94904ZM180.571 9.59609C179.26 9.71153 177.936 9.83202 176.601 9.95778L176.413 7.96659C177.753 7.84045 179.08 7.71959 180.396 7.6038L180.571 9.59609ZM172.672 10.34C171.352 10.4725 170.022 10.6102 168.682 10.7533L168.47 8.76463C169.813 8.62108 171.148 8.48294 172.472 8.35L172.672 10.34ZM164.762 11.1849C163.454 11.3331 162.139 11.4864 160.817 11.6452L160.578 9.65942C161.905 9.50015 163.225 9.34627 164.537 9.19758L164.762 11.1849ZM156.85 12.1349C155.552 12.2998 154.247 12.4699 152.937 12.6454L152.672 10.6631C153.986 10.487 155.295 10.3163 156.599 10.1508L156.85 12.1349ZM148.993 13.1883C147.685 13.373 146.373 13.5631 145.058 13.7589L144.763 11.7807C146.084 11.5842 147.401 11.3933 148.713 11.2079L148.993 13.1883ZM141.144 14.3564C139.836 14.5612 138.525 14.7716 137.211 14.9878L136.886 13.0144C138.205 12.7973 139.521 12.5861 140.834 12.3805L141.144 14.3564ZM133.299 15.6479C131.999 15.8727 130.698 16.1033 129.395 16.3398L129.037 14.372C130.346 14.1344 131.653 13.9028 132.959 13.6771L133.299 15.6479ZM125.483 17.0674C124.186 17.3145 122.888 17.5676 121.591 17.8269L121.199 15.8657C122.502 15.6052 123.806 15.3509 125.108 15.1027L125.483 17.0674ZM117.703 18.6225C116.408 18.894 115.114 19.1717 113.82 19.4559L113.391 17.5025C114.691 17.2169 115.992 16.9378 117.293 16.6651L117.703 18.6225ZM109.948 20.3273C108.659 20.6243 107.372 20.9278 106.087 21.238L105.617 19.2939C106.909 18.982 108.203 18.6769 109.499 18.3783L109.948 20.3273ZM102.238 22.1898C100.953 22.5154 99.6702 22.8478 98.3915 23.1873L97.8783 21.2543C99.1645 20.9128 100.454 20.5784 101.747 20.251L102.238 22.1898ZM94.5677 24.2272C93.2928 24.5822 92.0223 24.9445 90.757 25.3142L90.1961 23.3945C91.4697 23.0224 92.7483 22.6577 94.0311 22.3005L94.5677 24.2272ZM86.9489 26.4542C85.6851 26.8418 84.4272 27.2371 83.1757 27.6402L82.5626 25.7365C83.8231 25.3305 85.09 24.9324 86.3624 24.5421L86.9489 26.4542ZM79.4093 28.8837C78.1511 29.3096 76.9003 29.7436 75.6574 30.1861L74.9867 28.3019C76.2396 27.8559 77.5003 27.4184 78.7681 26.9893L79.4093 28.8837ZM71.9535 31.5386C70.7071 32.0056 69.4696 32.4813 68.2418 32.9659L67.5074 31.1056C68.7464 30.6165 69.9948 30.1366 71.2519 29.6657L71.9535 31.5386ZM64.5702 34.4544C63.3543 34.9607 62.149 35.4762 60.955 36.001L60.1502 34.1701C61.3565 33.6398 62.5738 33.1192 63.8014 32.6081L64.5702 34.4544ZM57.3217 37.6438C56.123 38.2013 54.9368 38.7689 53.7639 39.3467L52.8801 37.5526C54.0667 36.968 55.2664 36.394 56.4783 35.8303L57.3217 37.6438ZM50.2406 41.1346C49.0611 41.7513 47.8966 42.3789 46.7479 43.0177L45.7758 41.2699C46.94 40.6224 48.1197 39.9866 49.314 39.3622L50.2406 41.1346ZM43.3502 44.9679C42.2014 45.6486 41.0703 46.3413 39.9578 47.0463L38.8873 45.3568C40.0172 44.6409 41.1653 43.9378 42.3307 43.2473L43.3502 44.9679ZM36.6653 49.2057C35.5718 49.9483 34.4985 50.7038 33.4464 51.4724L32.2667 49.8573C33.3378 49.0749 34.4298 48.3063 35.5416 47.5512L36.6653 49.2057ZM30.2955 53.8638C29.2669 54.6753 28.2613 55.5007 27.2798 56.3401L25.9799 54.8201C26.9821 53.9631 28.008 53.121 29.0566 52.2936L30.2955 53.8638ZM24.3202 58.9824C23.3599 59.8783 22.4264 60.7892 21.5205 61.7156L20.0906 60.3173C21.0184 59.3684 21.9739 58.4361 22.9559 57.52L24.3202 58.9824ZM18.8374 64.5972C17.9659 65.5814 17.1248 66.5821 16.3154 67.5995L14.7503 66.3543C15.5822 65.3087 16.4459 64.2811 17.34 63.2713L18.8374 64.5972ZM13.9641 70.7287C13.2059 71.7992 12.4817 72.8875 11.7925 73.9937L10.095 72.9362C10.8054 71.7958 11.5515 70.6748 12.3319 69.5728L13.9641 70.7287ZM9.82961 77.3703C9.20934 78.5177 8.62563 79.6836 8.07971 80.8684L6.26326 80.0314C6.82724 78.8074 7.43002 77.6034 8.07024 76.4192L9.82961 77.3703ZM6.5574 84.4775C6.09468 85.6837 5.66986 86.9086 5.28418 88.1528L3.37387 87.5606C3.77261 86.2743 4.21179 85.0079 4.69011 83.7612L6.5574 84.4775ZM4.24565 91.9433C3.94777 93.1912 3.68802 94.4577 3.46756 95.7431L1.49634 95.4051C1.72404 94.0773 1.99242 92.7687 2.30029 91.4789L4.24565 91.9433ZM2.92793 99.6311C2.85777 100.288 2.79758 100.951 2.7475 101.618L0.753113 101.468C0.804749 100.78 0.866837 100.097 0.939224 99.4188L2.92793 99.6311ZM2.7475 101.618C2.6974 102.285 2.65584 102.953 2.62267 103.621L0.625122 103.522C0.659119 102.837 0.701736 102.152 0.753113 101.468L2.7475 101.618ZM2.52362 107.638C2.52359 108.974 2.55606 110.313 2.62009 111.652L0.622375 111.747C0.556854 110.377 0.52359 109.007 0.523621 107.638L2.52362 107.638ZM2.90523 115.666C3.03026 116.995 3.18538 118.325 3.36969 119.656L1.38861 119.93C1.20036 118.571 1.04184 117.212 0.914017 115.853L2.90523 115.666ZM4.00751 123.637C4.24611 124.95 4.51227 126.263 4.8051 127.575L2.85313 128.01C2.55463 126.673 2.28317 125.334 2.03972 123.994L4.00751 123.637ZM5.76067 131.5C6.10081 132.79 6.466 134.079 6.85539 135.367L4.94102 135.946C4.54486 134.636 4.17311 133.324 3.82672 132.009L5.76067 131.5ZM8.0936 139.218C8.52383 140.483 8.97672 141.744 9.45142 143.003L7.57997 143.709C7.09782 142.43 6.63763 141.148 6.20027 139.863L8.0936 139.218ZM10.9391 146.77C11.4491 148.006 11.9796 149.238 12.5296 150.467L10.704 151.284C10.1462 150.038 9.60811 148.787 9.09047 147.533L10.9391 146.77ZM14.237 154.142C14.8177 155.348 15.4168 156.55 16.0335 157.747L14.2553 158.663C13.6307 157.45 13.0237 156.232 12.4351 155.01L14.237 154.142ZM17.9345 161.326C18.5784 162.502 19.2386 163.674 19.9146 164.84L18.1841 165.843C17.5002 164.663 16.832 163.477 16.1802 162.287L17.9345 161.326ZM21.987 168.322C22.6873 169.468 23.4023 170.609 24.1313 171.744L22.4483 172.825C21.7115 171.677 20.9886 170.524 20.2803 169.365L21.987 168.322ZM26.3565 175.129C27.1078 176.246 27.8721 177.356 28.6487 178.46L27.0128 179.611C26.2283 178.496 25.4563 177.374 24.6972 176.246L26.3565 175.129ZM31.0115 181.749C31.8088 182.836 32.6176 183.916 33.4373 184.989L31.8479 186.203C31.0205 185.12 30.2039 184.03 29.3989 182.932L31.0115 181.749ZM35.9253 188.184C36.7646 189.241 37.614 190.291 38.4728 191.333L36.9294 192.605C36.063 191.553 35.2059 190.494 34.3589 189.427L35.9253 188.184ZM41.0759 194.434C41.9537 195.462 42.8402 196.481 43.7347 197.491L42.2371 198.817C41.335 197.798 40.4409 196.77 39.5554 195.734L41.0759 194.434ZM46.4452 200.501C47.3586 201.498 48.2793 202.487 49.2066 203.465L47.7547 204.841C46.8198 203.854 45.8915 202.858 44.9705 201.852L46.4452 200.501ZM52.0184 206.384C52.9649 207.35 53.9174 208.307 54.8751 209.253L53.4695 210.676C52.504 209.722 51.5438 208.758 50.5896 207.783L52.0184 206.384ZM57.7836 212.08C58.7615 213.015 59.7439 213.939 60.7303 214.852L59.3717 216.32C58.3775 215.4 57.3871 214.468 56.4014 213.525L57.7836 212.08ZM63.7317 217.585C64.7399 218.488 65.7512 219.379 66.7648 220.257L65.455 221.769C64.4331 220.883 63.4137 219.985 62.3974 219.075L63.7317 217.585ZM69.8565 222.892C70.8946 223.762 71.9342 224.618 72.9747 225.461L71.716 227.015C70.6668 226.165 69.6185 225.302 68.572 224.425L69.8565 222.892ZM76.1539 227.991C77.2225 228.826 78.2909 229.646 79.3584 230.451L78.1544 232.048C77.0775 231.236 75.9998 230.409 74.9221 229.566L76.1539 227.991ZM82.6222 232.866C83.7229 233.665 84.8216 234.446 85.9172 235.21L84.7731 236.851C83.6671 236.08 82.5582 235.291 81.4474 234.484L82.6222 232.866ZM89.2613 237.494C90.3972 238.254 91.5285 238.993 92.6543 239.712L91.5776 241.398C90.44 240.671 89.297 239.924 88.1497 239.157L89.2613 237.494ZM96.0717 241.843C97.2471 242.558 98.4147 243.249 99.5734 243.916L98.5754 245.65C97.4026 244.974 96.2212 244.275 95.0325 243.552L96.0717 241.843ZM103.075 245.874C104.287 246.531 105.488 247.16 106.675 247.76L105.773 249.545C104.568 248.936 103.351 248.298 102.122 247.632L103.075 245.874ZM110.31 249.525C111.543 250.099 112.759 250.639 113.956 251.144L113.178 252.987C111.958 252.472 110.72 251.922 109.466 251.338L110.31 249.525ZM117.729 252.645C119.028 253.129 120.299 253.566 121.539 253.957L120.939 255.864C119.664 255.463 118.36 255.014 117.031 254.52L117.729 252.645ZM125.385 255.039C126.727 255.37 128.024 255.637 129.272 255.838L128.953 257.812C127.647 257.602 126.296 257.324 124.907 256.981L125.385 255.039ZM133.196 256.262C134.587 256.331 135.892 256.298 137.107 256.164L137.326 258.152C135.992 258.299 134.579 258.333 133.097 258.26L133.196 256.262ZM140.844 255.327C141.443 255.11 142.007 254.857 142.534 254.567L143.496 256.32C142.874 256.662 142.216 256.957 141.526 257.207L140.844 255.327ZM142.534 254.567C143.101 254.256 143.655 253.934 144.197 253.603L145.241 255.309C144.672 255.657 144.091 255.994 143.496 256.32L142.534 254.567ZM147.345 251.46C148.372 250.685 149.344 249.87 150.263 249.02L151.622 250.487C150.654 251.383 149.631 252.241 148.55 253.057L147.345 251.46ZM152.926 246.29C153.771 245.33 154.561 244.334 155.297 243.307L156.923 244.472C156.148 245.553 155.317 246.601 154.426 247.612L152.926 246.29ZM157.364 240.104C158.002 239.001 158.587 237.869 159.12 236.713L160.936 237.551C160.378 238.762 159.764 239.948 159.094 241.105L157.364 240.104ZM160.567 233.174C160.998 231.975 161.379 230.755 161.713 229.519L163.644 230.04C163.297 231.327 162.899 232.599 162.449 233.85L160.567 233.174ZM162.568 225.78C162.806 224.525 162.998 223.258 163.146 221.984L165.133 222.215C164.979 223.535 164.78 224.849 164.533 226.152L162.568 225.78ZM163.461 218.152C163.523 216.871 163.544 215.587 163.524 214.304L165.524 214.273C165.544 215.598 165.523 216.925 165.458 218.249L163.461 218.152ZM163.347 210.457C163.248 209.173 163.111 207.895 162.937 206.625L164.919 206.354C165.098 207.662 165.24 208.98 165.341 210.304L163.347 210.457ZM162.302 202.825C162.052 201.558 161.766 200.305 161.445 199.071L163.381 198.568C163.711 199.84 164.006 201.131 164.264 202.437L162.302 202.825ZM160.364 195.37C159.962 194.136 159.526 192.927 159.058 191.749L160.917 191.011C161.401 192.229 161.851 193.477 162.265 194.75L160.364 195.37ZM157.522 188.228C156.96 187.052 156.365 185.915 155.74 184.824L157.475 183.829C158.126 184.966 158.744 186.147 159.327 187.366L157.522 188.228ZM153.706 181.59C152.964 180.515 152.19 179.5 151.387 178.552L152.913 177.26C153.761 178.261 154.575 179.328 155.352 180.454L153.706 181.59ZM148.779 175.805C148.312 175.37 147.839 174.958 147.359 174.569L148.619 173.016C149.136 173.435 149.644 173.878 150.142 174.342L148.779 175.805ZM147.359 174.569C146.928 174.219 146.437 173.889 145.887 173.583L146.861 171.836C147.501 172.192 148.089 172.585 148.619 173.016L147.359 174.569ZM142.453 172.189C141.334 171.86 140.098 171.591 138.752 171.384L139.056 169.407C140.476 169.626 141.8 169.912 143.016 170.27L142.453 172.189ZM134.926 170.98C133.696 170.902 132.404 170.866 131.054 170.87L131.047 168.87C132.437 168.865 133.774 168.903 135.052 168.984L134.926 170.98ZM127.162 170.989C125.9 171.06 124.599 171.161 123.262 171.294L123.064 169.304C124.428 169.169 125.758 169.064 127.051 168.992L127.162 170.989ZM119.386 171.755C118.131 171.927 116.85 172.124 115.546 172.347L115.21 170.375C116.535 170.149 117.837 169.949 119.114 169.773L119.386 171.755ZM111.702 173.062C110.438 173.316 109.156 173.592 107.858 173.89L107.41 171.941C108.726 171.639 110.026 171.359 111.308 171.101L111.702 173.062ZM104.07 174.812C102.824 175.132 101.565 175.471 100.295 175.83L99.7516 173.905C101.036 173.542 102.311 173.199 103.573 172.875L104.07 174.812ZM96.5216 176.944C95.291 177.322 94.0523 177.719 92.8069 178.133L92.1762 176.235C93.4356 175.816 94.6884 175.415 95.9333 175.032L96.5216 176.944ZM89.1024 179.409C87.8788 179.846 86.6504 180.299 85.4184 180.769L84.7059 178.9C85.9512 178.425 87.1932 177.967 88.4303 177.525L89.1024 179.409ZM81.7843 182.199C80.5783 182.688 79.3703 183.193 78.1616 183.714L77.3702 181.877C78.592 181.351 79.8131 180.84 81.0322 180.346L81.7843 182.199ZM74.5867 185.3C73.4035 185.84 72.2208 186.395 71.0398 186.965L70.1707 185.163C71.3647 184.587 72.5603 184.026 73.7565 183.48L74.5867 185.3ZM67.5282 188.706C66.3696 189.297 65.2139 189.901 64.0621 190.521L63.115 188.759C64.2798 188.133 65.4486 187.521 66.6202 186.924L67.5282 188.706ZM60.6288 192.417C59.4971 193.058 58.3704 193.714 57.2499 194.384L56.2236 192.668C57.3575 191.99 58.4974 191.326 59.6422 190.677L60.6288 192.417ZM53.9118 196.434C52.8095 197.128 51.7143 197.837 50.6275 198.56L49.5201 196.895C50.6206 196.163 51.7294 195.445 52.8452 194.742L53.9118 196.434ZM47.3958 200.768C46.3286 201.517 45.2707 202.279 44.2232 203.056L43.0321 201.449C44.0937 200.662 45.1657 199.889 46.2469 199.131L47.3958 200.768ZM41.1123 205.428C40.0864 206.232 39.072 207.05 38.0703 207.882L36.7927 206.343C37.8091 205.499 38.838 204.669 39.8783 203.854L41.1123 205.428ZM35.0979 210.423C34.1197 211.285 33.1554 212.16 32.2059 213.049L30.839 211.589C31.8036 210.686 32.7829 209.797 33.776 208.922L35.0979 210.423ZM29.3959 215.764C28.4732 216.684 27.5666 217.618 26.6773 218.566L25.2188 217.198C26.1235 216.233 27.0455 215.283 27.9835 214.348L29.3959 215.764ZM24.0564 221.457C23.1983 222.437 22.3588 223.431 21.5388 224.439L19.9874 223.177C20.8228 222.15 21.6779 221.138 22.5515 220.14L24.0564 221.457ZM19.1364 227.508C18.3535 228.548 17.5914 229.601 16.8515 230.669L15.2077 229.53C15.9629 228.44 16.7402 227.365 17.5386 226.305L19.1364 227.508ZM14.6979 233.914C14.002 235.011 13.3293 236.122 12.681 237.247L10.9483 236.248C11.6109 235.099 12.2983 233.964 13.009 232.843L14.6979 233.914ZM10.8112 240.66C10.2133 241.811 9.64084 242.976 9.09492 244.155L7.28018 243.314C7.83897 242.108 8.42477 240.916 9.03638 239.739L10.8112 240.66ZM7.54318 247.719C7.0537 248.919 6.59158 250.132 6.15796 251.359L4.27225 250.693C4.71658 249.435 5.19 248.192 5.69135 246.963L7.54318 247.719ZM4.95349 255.048C4.58223 256.286 4.23978 257.537 3.92719 258.801L1.98564 258.321C2.30614 257.025 2.65723 255.742 3.0378 254.473L4.95349 255.048ZM3.08803 262.593C2.96313 263.232 2.84579 263.874 2.73618 264.519L0.76445 264.184C0.876846 263.522 0.997162 262.864 1.12521 262.21L3.08803 262.593ZM2.73618 264.519C2.62169 265.192 2.52087 265.86 2.43349 266.521L0.450729 266.259C0.541382 265.573 0.645905 264.881 0.76445 264.184L2.73618 264.519ZM2.06888 270.413C1.99823 271.718 1.98233 272.998 2.01936 274.253L0.0202332 274.312C-0.0184937 273 -0.00178528 271.665 0.0718079 270.305L2.06888 270.413ZM2.31187 278.148C2.46918 279.436 2.68507 280.697 2.95749 281.93L1.0045 282.362C0.718216 281.065 0.491592 279.741 0.326614 278.39L2.31187 278.148ZM3.98225 285.675C4.3846 286.901 4.84589 288.099 5.36398 289.271L3.53491 290.08C2.99033 288.848 2.50522 287.588 2.08202 286.299L3.98225 285.675ZM7.10184 292.732C7.73233 293.85 8.41777 294.942 9.15616 296.01L7.51137 297.148C6.73918 296.031 6.02113 294.887 5.35976 293.714L7.10184 292.732ZM11.5018 299.105C12.318 300.094 13.1823 301.059 14.0928 302.002L12.6542 303.391C11.7092 302.412 10.8103 301.409 9.95982 300.379L11.5018 299.105ZM16.9004 304.708C17.8561 305.568 18.8524 306.408 19.8877 307.228L18.6458 308.796C17.5792 307.951 16.5508 307.084 15.5626 306.195L16.9004 304.708ZM23.0173 309.566C24.0765 310.312 25.1695 311.041 26.295 311.753L25.2263 313.443C24.0737 312.715 22.9527 311.967 21.865 311.2L23.0173 309.566ZM29.6369 313.761C30.775 314.412 31.9414 315.047 33.1349 315.666L32.2135 317.441C30.9971 316.81 29.8068 316.162 28.6443 315.497L29.6369 313.761ZM36.6128 317.392C37.7958 317.954 39.002 318.502 40.2302 319.036L39.4322 320.87C38.1847 320.327 36.9586 319.77 35.7551 319.199L36.6128 317.392ZM43.8488 320.547C45.0563 321.031 46.2826 321.503 47.5268 321.963L46.8329 323.839C45.5726 323.373 44.3295 322.894 43.1048 322.403L43.8488 320.547ZM51.2788 323.298C52.5019 323.716 53.7404 324.124 54.9933 324.522L54.3882 326.428C53.1216 326.026 51.869 325.614 50.6314 325.19L51.2788 323.298ZM58.7946 325.685C60.0479 326.054 61.3143 326.414 62.5927 326.765L62.064 328.694C60.7737 328.34 59.4951 327.977 58.2291 327.603L58.7946 325.685ZM66.4019 327.773C67.6828 328.1 68.9747 328.418 70.2766 328.727L69.8141 330.673C68.5017 330.361 67.1992 330.04 65.9072 329.71L66.4019 327.773ZM74.1085 329.607C75.3895 329.891 76.6792 330.167 77.9769 330.435L77.5721 332.394C76.2653 332.123 74.9662 331.845 73.6757 331.559L74.1085 329.607ZM81.8876 331.215C83.1702 331.462 84.4597 331.702 85.7554 331.935L85.4018 333.903C84.0981 333.669 82.8004 333.428 81.5094 333.179L81.8876 331.215ZM89.6605 332.612C90.9639 332.83 92.2728 333.041 93.5865 333.246L93.2787 335.222C91.9577 335.016 90.6414 334.804 89.3304 334.585L89.6605 332.612ZM97.4898 333.832C98.7951 334.021 100.105 334.204 101.417 334.381L101.151 336.363C99.8313 336.186 98.5152 336.002 97.203 335.812L97.4898 333.832ZM105.355 334.892C106.662 335.055 107.972 335.212 109.284 335.363L109.054 337.35C107.737 337.198 106.421 337.04 105.108 336.876L105.355 334.892ZM113.225 335.801C114.539 335.942 115.855 336.076 117.172 336.206L116.976 338.196C115.654 338.066 114.333 337.931 113.013 337.79L113.225 335.801ZM121.119 336.578C122.436 336.696 123.752 336.81 125.068 336.918L124.903 338.912C123.582 338.803 122.261 338.689 120.94 338.569L121.119 336.578ZM129.022 337.23C130.344 337.329 131.665 337.424 132.984 337.513L132.848 339.509C131.524 339.419 130.199 339.324 128.872 339.224L129.022 337.23ZM136.934 337.768C138.258 337.849 139.578 337.926 140.896 337.998L140.787 339.995C139.465 339.922 138.14 339.846 136.812 339.765L136.934 337.768ZM144.867 338.201C146.188 338.265 147.504 338.324 148.816 338.379L148.732 340.378C147.416 340.322 146.096 340.263 144.771 340.199L144.867 338.201ZM152.787 338.534C154.118 338.582 155.444 338.626 156.764 338.666L156.703 340.665C155.38 340.625 154.05 340.581 152.715 340.533L152.787 338.534ZM160.703 338.774C162.04 338.807 163.37 338.836 164.693 338.862L164.654 340.861C163.329 340.836 161.995 340.807 160.654 340.774L160.703 338.774ZM168.665 338.927C169.981 338.945 171.288 338.96 172.585 338.971L172.568 340.971C171.267 340.96 169.957 340.945 168.637 340.927L168.665 338.927ZM176.607 338.995C177.937 339 179.255 339.001 180.56 338.999L180.563 340.999C179.254 341.001 177.933 341 176.6 340.995L176.607 338.995ZM184.518 338.983C185.867 338.975 187.201 338.963 188.519 338.948L188.542 340.948C187.22 340.963 185.883 340.975 184.531 340.983L184.518 338.983ZM192.426 338.895C193.789 338.873 195.133 338.848 196.457 338.82L196.499 340.82C195.171 340.848 193.824 340.872 192.458 340.894L192.426 338.895ZM200.396 338.729C201.748 338.695 203.077 338.658 204.38 338.619L204.44 340.618C203.134 340.657 201.802 340.694 200.447 340.729L200.396 338.729ZM208.35 338.49C209.7 338.443 211.018 338.394 212.304 338.343L212.383 340.342C211.094 340.392 209.773 340.442 208.42 340.489L208.35 338.49ZM216.286 338.176C217.653 338.116 218.975 338.054 220.251 337.992L220.349 339.989C219.07 340.052 217.744 340.114 216.374 340.175L216.286 338.176ZM224.183 337.789C225.6 337.712 226.944 337.636 228.211 337.561L228.33 339.557C227.059 339.633 225.711 339.709 224.291 339.786L224.183 337.789ZM232.139 337.317C233.594 337.222 234.902 337.132 236.053 337.05L236.196 339.045C235.041 339.128 233.728 339.218 232.269 339.312L232.139 337.317Z" fill="#2ECE8E"/>
</svg>
